<?xml version="1.0" encoding="UTF-8" standalone="no"?>
<svg width="39px" height="61px" viewBox="0 0 39 61" version="1.1" xmlns="http://www.w3.org/2000/svg" xmlns:xlink="http://www.w3.org/1999/xlink">
    <!-- Generator: Sketch 3.8.3 (29802) - http://www.bohemiancoding.com/sketch -->
    <title>Layer_2_32_</title>
    <desc>Created with Sketch.</desc>
    <defs></defs>
    <g id="Page-1" stroke="none" stroke-width="1" fill="none" fill-rule="evenodd">
        <g id="FindeSemanaLargo" transform="translate(-1054.000000, -1655.000000)" stroke="#8B572A">
            <g id="mexico-indian-cloth" transform="translate(1054.000000, 1656.000000)">
                <g id="Capa_1">
                    <g id="Layer_2_32_">
                        <rect id="Rectangle-path" x="0.543513898" y="49.4086426" width="37.7096912" height="2.19067521"></rect>
                        <rect id="Rectangle-path" x="0.543513898" y="19.8345845" width="37.7096912" height="19.7160769"></rect>
                        <polygon id="Shape" points="6.57994628 11.8178014 11.0470185 16.1991518 15.5171241 11.8178014 19.9885949 16.1991518 24.4602173 11.8178014 28.9272895 16.1991518 33.3987602 11.8178014 37.8717476 16.1991518 38.2532051 15.8256202 38.2532051 11.0718837 0.543513898 11.0718837 0.543513898 14.6624147 2.10847556 16.1991518"></polygon>
                        <polygon id="Shape" points="38.2532051 17.6198548 37.8717476 17.9932719 33.3987602 13.6119215 28.9272895 17.9932719 24.4602173 13.6119215 19.9885949 17.9932719 15.5171241 13.6119215 11.0470185 17.9932719 6.57994628 13.6119215 2.10847556 17.9932719 0.543513898 16.4587111 0.543513898 18.7391896 38.2532051 18.7391896"></polygon>
                        <polygon id="Shape" points="38.2532051 47.1940274 37.8717476 47.5674445 33.3987602 43.1860941 28.9272895 47.5674445 24.4602173 43.1860941 19.9885949 47.5674445 15.5171241 43.1860941 11.0470185 47.5674445 6.57994628 43.1860941 2.10847556 47.5674445 0.543513898 46.0328837 0.543513898 48.3133622 38.2532051 48.3133622"></polygon>
                        <polygon id="Shape" points="6.57994628 41.3918595 11.0470185 45.7732099 15.5171241 41.3918595 19.9885949 45.7732099 24.4602173 41.3918595 28.9272895 45.7732099 33.3987602 41.3918595 37.8717476 45.7732099 38.2532051 45.3996783 38.2532051 40.6459417 0.543513898 40.6459417 0.543513898 44.2364727 2.10847556 45.7732099"></polygon>
                        <rect id="Rectangle-path" x="0.543513898" y="7.78592814" width="37.7096912" height="2.19067521"></rect>
                        <rect id="Rectangle-path" x="0.543513898" y="0.118507632" width="2.90074548" height="6.57202563"></rect>
                        <rect id="Rectangle-path" x="4.89455628" y="0.118507632" width="2.90074548" height="6.57202563"></rect>
                        <rect id="Rectangle-path" x="9.24575034" y="0.118507632" width="2.90074548" height="6.57202563"></rect>
                        <rect id="Rectangle-path" x="13.5969444" y="0.118507632" width="2.90074548" height="6.57202563"></rect>
                        <rect id="Rectangle-path" x="17.9479868" y="0.118507632" width="2.90074548" height="6.57202563"></rect>
                        <rect id="Rectangle-path" x="22.2990292" y="0.118507632" width="2.90074548" height="6.57202563"></rect>
                        <rect id="Rectangle-path" x="26.6502232" y="0.118507632" width="2.90074548" height="6.57202563"></rect>
                        <rect id="Rectangle-path" x="31.0014173" y="0.118507632" width="2.90074548" height="6.57202563"></rect>
                        <rect id="Rectangle-path" x="35.3524596" y="0.118507632" width="2.90074548" height="6.57202563"></rect>
                        <rect id="Rectangle-path" x="0.543513898" y="52.6947126" width="2.90074548" height="6.57202563"></rect>
                        <rect id="Rectangle-path" x="4.89455628" y="52.6947126" width="2.90074548" height="6.57202563"></rect>
                        <rect id="Rectangle-path" x="9.24575034" y="52.6947126" width="2.90074548" height="6.57202563"></rect>
                        <rect id="Rectangle-path" x="13.5969444" y="52.6947126" width="2.90074548" height="6.57202563"></rect>
                        <rect id="Rectangle-path" x="17.9479868" y="52.6947126" width="2.90074548" height="6.57202563"></rect>
                        <rect id="Rectangle-path" x="22.2990292" y="52.6947126" width="2.90074548" height="6.57202563"></rect>
                        <rect id="Rectangle-path" x="26.6502232" y="52.6947126" width="2.90074548" height="6.57202563"></rect>
                        <rect id="Rectangle-path" x="31.0014173" y="52.6947126" width="2.90074548" height="6.57202563"></rect>
                        <rect id="Rectangle-path" x="35.3524596" y="52.6947126" width="2.90074548" height="6.57202563"></rect>
                    </g>
                </g>
            </g>
        </g>
    </g>
</svg>