<?xml version="1.0" encoding="UTF-8" standalone="no"?>
<svg width="25px" height="30px" viewBox="0 0 25 30" version="1.1" xmlns="http://www.w3.org/2000/svg" xmlns:xlink="http://www.w3.org/1999/xlink">
    <!-- Generator: Sketch 3.8.3 (29802) - http://www.bohemiancoding.com/sketch -->
    <title>beauty-face-mask</title>
    <desc>Created with Sketch.</desc>
    <defs></defs>
    <g id="Page-1" stroke="none" stroke-width="1" fill="none" fill-rule="evenodd">
        <g id="FindeSemanaLargo" transform="translate(-143.000000, -1059.000000)" fill="#606060">
            <g id="beauty-face-mask" transform="translate(143.000000, 1059.000000)">
                <g id="Capa_1">
                    <g id="Group">
                        <path d="M24.3810365,14.0952973 C24.3810365,11.5194324 23.3231171,9.15527027 21.5668904,7.31489189 C21.3360626,5.33594595 20.2826547,3.51 18.5845861,2.15472973 C16.8435347,0.765243243 14.5786503,0 12.206965,0 C9.83552573,0 7.57064131,0.765243243 5.82967189,2.15481081 C4.13160328,3.51008108 3.07819538,5.33602703 2.84728561,7.31489189 C1.09105891,9.15527027 0.0332214765,11.5195135 0.0332214765,14.0952973 C0.0332214765,17.3340811 1.68781506,20.3407297 4.57693512,22.3678378 C5.30542878,26.7012973 8.44982103,29.9701622 12.207047,29.9701622 C15.964355,29.9701622 19.1086652,26.7012162 19.8371588,22.3677568 C22.726525,20.3405676 24.3810365,17.334 24.3810365,14.0952973 L24.3810365,14.0952973 Z M12.206965,1.21621622 C15.7563311,1.21621622 18.8364952,3.17310811 19.9453542,5.90586486 C18.384601,4.78240541 15.8407383,3.47935135 12.207129,3.47935135 C9.27076063,3.47935135 6.57383296,4.39062162 4.46882177,5.90586486 C5.57759881,3.17310811 8.65776286,1.21621622 12.206965,1.21621622 L12.206965,1.21621622 Z M1.26372856,14.0952973 C1.26372856,8.91227027 6.17296048,4.69556757 12.207211,4.69556757 C12.861387,4.69556757 13.5023565,4.74527027 14.1252796,4.8402973 C16.6463386,5.92013514 18.2097166,7.90954054 18.2097166,10.0475676 C18.2097166,11.1085946 17.8300075,12.1365405 17.107912,13.0530811 C15.7683893,11.7240811 14.062774,10.9263243 12.207211,10.9263243 C7.91228934,10.9263243 4.41804623,15.1978378 4.41804623,20.4483243 C4.41804623,20.5320811 4.41894855,20.6155946 4.42075317,20.6987838 C2.40080537,18.9463784 1.26372856,16.5955135 1.26372856,14.0952973 L1.26372856,14.0952973 Z M12.207129,28.7539459 C9.05609247,28.7539459 6.41715884,25.9251892 5.7900522,22.1678108 C6.40747949,22.7996757 7.27238628,23.1937297 8.2291648,23.1937297 C10.1001491,23.1937297 11.622349,21.6891892 11.622349,19.8398919 C11.622349,17.9905946 10.1001491,16.4860541 8.2291648,16.4860541 C7.4608874,16.4860541 6.7516704,16.7401622 6.18231171,17.1672162 C7.18888143,14.2144865 9.5103654,12.1425405 12.207129,12.1425405 C15.8184265,12.1425405 17.8670843,16.0967838 18.2318643,17.1672973 C17.6625056,16.7400811 16.9532066,16.4860541 16.1848471,16.4860541 C14.3140268,16.4860541 12.791909,17.9905946 12.791909,19.8398919 C12.791909,21.6891892 14.3141089,23.1937297 16.1848471,23.1937297 C17.1417897,23.1937297 18.0066145,22.7995946 18.6240418,22.1677297 C17.9970172,25.9251892 15.3581655,28.7539459 12.207129,28.7539459 L12.207129,28.7539459 Z M6.06665175,19.8398919 C6.06665175,18.6612162 7.03680089,17.7022703 8.22924683,17.7022703 C9.42177479,17.7022703 10.3919239,18.6612162 10.3919239,19.8398919 C10.3919239,21.0185676 9.42177479,21.9775135 8.22924683,21.9775135 C7.03680089,21.9775946 6.06665175,21.0185676 6.06665175,19.8398919 L6.06665175,19.8398919 Z M18.3476063,19.8398919 C18.3476063,21.0185676 17.3775391,21.9775135 16.1849292,21.9775135 C14.9924832,21.9775135 14.0224161,21.0185676 14.0224161,19.8398919 C14.0224161,18.6612162 14.9924832,17.7022703 16.1849292,17.7022703 C17.3775391,17.7022703 18.3476063,18.6612162 18.3476063,19.8398919 L18.3476063,19.8398919 Z M19.9935869,20.6987838 C19.9953915,20.6155946 19.9962938,20.5320811 19.9962938,20.4484054 C19.9962938,17.9574324 19.2093139,15.6872432 17.924094,13.9885135 C18.9042506,12.8201351 19.4399776,11.4387568 19.4399776,10.0475676 C19.4399776,8.60464865 18.8837435,7.22683784 17.8910365,6.06583784 C21.0422371,7.7177027 23.1504474,10.698973 23.1504474,14.0953784 C23.1506115,16.5954324 22.0135347,18.9462973 19.9935869,20.6987838 L19.9935869,20.6987838 Z" id="Shape"></path>
                        <path d="M14.4296048,24.3113514 C14.1337286,24.146027 13.7584489,24.2494054 13.5915213,24.5418649 C13.3095078,25.0354054 12.7791126,25.341973 12.207129,25.341973 C11.6352274,25.341973 11.1047502,25.0354054 10.8227368,24.5417838 C10.655645,24.2494865 10.2805295,24.1461892 9.98457122,24.3113514 C9.68877703,24.4765135 9.58435496,24.8474595 9.75144668,25.1399189 C10.2513274,26.0147027 11.1922744,26.5581892 12.207129,26.5581892 C13.2220656,26.5581892 14.1631767,26.0147027 14.6628113,25.1399189 C14.8299851,24.8474595 14.725563,24.4765135 14.4296048,24.3113514 L14.4296048,24.3113514 Z" id="Shape"></path>
                        <path d="M9.35147651,19.8398919 C9.35147651,19.5040541 9.07602535,19.2317838 8.73626398,19.2317838 L7.72214765,19.2317838 C7.38238628,19.2317838 7.10693512,19.5040541 7.10693512,19.8398919 C7.10693512,20.1757297 7.38238628,20.448 7.72214765,20.448 L8.73626398,20.448 C9.07602535,20.448 9.35147651,20.1757297 9.35147651,19.8398919 L9.35147651,19.8398919 Z" id="Shape"></path>
                        <path d="M15.0627815,19.8398919 C15.0627815,20.1757297 15.3381506,20.448 15.677994,20.448 L16.6919463,20.448 C17.0317897,20.448 17.3071588,20.1757297 17.3071588,19.8398919 C17.3071588,19.5040541 17.0317897,19.2317838 16.6919463,19.2317838 L15.677994,19.2317838 C15.3381506,19.2317838 15.0627815,19.5040541 15.0627815,19.8398919 L15.0627815,19.8398919 Z" id="Shape"></path>
                    </g>
                </g>
            </g>
        </g>
    </g>
</svg>