<?xml version="1.0" encoding="UTF-8" standalone="no"?>
<svg width="22px" height="30px" viewBox="0 0 22 30" version="1.1" xmlns="http://www.w3.org/2000/svg" xmlns:xlink="http://www.w3.org/1999/xlink">
    <!-- Generator: Sketch 3.8.3 (29802) - http://www.bohemiancoding.com/sketch -->
    <title>Combined Shape</title>
    <desc>Created with Sketch.</desc>
    <defs></defs>
    <g id="Page-1" stroke="none" stroke-width="1" fill="none" fill-rule="evenodd">
        <g id="FindeSemanaLargo" transform="translate(-449.000000, -1126.000000)" fill="#606060">
            <path d="M469.107975,1150.06545 L469.107975,1147.33441 C469.107975,1147.12209 468.935795,1146.94991 468.723473,1146.94991 L464.022249,1146.94991 C465.584171,1146.35901 467.016824,1145.43812 468.233003,1144.22202 C468.305136,1144.14989 468.345585,1144.05215 468.345585,1143.9501 C468.345585,1143.84813 468.305059,1143.75032 468.233003,1143.67818 L465.058788,1140.50397 C464.943438,1140.38862 464.76772,1140.35863 464.62061,1140.42922 C463.241941,1141.09064 461.712547,1141.46345 460.174541,1141.51698 L460.174541,1140.69376 C461.410944,1140.50766 462.361971,1139.43828 462.361971,1138.15082 C462.361971,1136.86335 461.410944,1135.79398 460.174541,1135.60788 L460.174541,1134.48044 L461.613346,1133.04164 C461.685478,1132.9695 461.725928,1132.87176 461.725928,1132.76972 L461.725928,1126.38453 C461.725928,1126.22965 461.633032,1126.08985 461.490152,1126.02994 C461.347425,1125.97004 461.18255,1126.00164 461.071968,1126.11023 L459.520503,1127.63408 C459.44691,1127.70637 459.405461,1127.80526 459.405461,1127.90839 L459.405461,1135.6078 C458.169134,1135.79405 457.218338,1136.86335 457.218338,1138.15074 C457.218338,1139.43813 458.169211,1140.50743 459.405461,1140.69368 L459.405461,1141.5169 C457.867531,1141.4633 456.338291,1141.09056 454.959699,1140.42914 C454.812511,1140.35855 454.636948,1140.38862 454.521521,1140.50389 L451.347306,1143.67811 C451.275173,1143.75024 451.234724,1143.84798 451.234724,1143.95003 C451.234724,1144.05207 451.27525,1144.14981 451.347306,1144.22195 C452.563484,1145.43812 453.996138,1146.35893 455.55806,1146.94983 L450.856758,1146.94983 C450.644437,1146.94983 450.472257,1147.12201 450.472257,1147.33433 L450.472257,1150.06537 C449.619663,1150.3356 449,1151.13413 449,1152.07493 L449,1153.89232 C449,1155.05451 449.94549,1156 451.107684,1156 L468.472548,1156 C469.634742,1156 470.580232,1155.05451 470.580232,1153.89232 L470.580232,1152.07493 C470.580232,1151.13421 469.960569,1150.3356 469.107975,1150.06545 Z M460.174464,1128.06972 L460.956925,1127.30118 L460.956925,1132.61038 L460.174464,1133.39284 L460.174464,1128.06972 Z M452.94591,1149.96732 L451.24126,1149.96732 L451.24126,1148.26267 L452.94591,1149.96732 Z M454.033434,1149.96732 L451.785022,1147.71883 L454.409631,1147.71883 L456.658042,1149.96732 L454.033434,1149.96732 Z M457.745644,1149.96732 L455.497232,1147.71883 L458.121917,1147.71883 L460.370329,1149.96732 L457.745644,1149.96732 Z M461.45793,1149.96732 L459.209518,1147.71883 L461.834127,1147.71883 L464.082539,1149.96732 L461.45793,1149.96732 Z M465.17014,1149.96732 L462.921728,1147.71883 L465.546413,1147.71883 L467.794825,1149.96732 L465.17014,1149.96732 Z M468.338972,1149.42395 L466.633938,1147.71883 L468.338972,1147.71883 L468.338972,1149.42395 Z M460.53951,1138.15074 C460.53951,1138.36306 460.71169,1138.53524 460.924011,1138.53524 C461.136333,1138.53524 461.308513,1138.36306 461.308513,1138.15074 C461.308513,1137.31345 460.627407,1136.63234 459.790116,1136.63234 C459.577794,1136.63234 459.405614,1136.80452 459.405614,1137.01685 C459.405614,1137.22917 459.577794,1137.40135 459.790116,1137.40135 C460.203378,1137.40135 460.53951,1137.73748 460.53951,1138.15074 Z M457.987342,1138.15074 C457.987342,1137.15665 458.796102,1136.34797 459.790116,1136.34797 C460.78413,1136.34797 461.59289,1137.15673 461.59289,1138.15074 C461.59289,1139.14476 460.78413,1139.95352 459.790116,1139.95352 C458.796102,1139.95352 457.987342,1139.14483 457.987342,1138.15074 Z M454.875108,1141.23791 C456.407501,1141.92916 458.100693,1142.29336 459.790116,1142.29336 C461.479462,1142.29336 463.172654,1141.92909 464.705124,1141.23791 L466.554807,1143.08759 C464.676901,1144.8473 462.289454,1145.8124 459.789962,1145.8124 C457.290548,1145.8124 454.9031,1144.8473 453.025271,1143.08767 L454.875108,1141.23791 Z M452.167525,1143.94549 L452.481278,1143.63174 C454.50491,1145.53648 457.085301,1146.5814 459.789962,1146.5814 C462.494701,1146.5814 465.075168,1145.5364 467.0988,1143.63158 L467.412707,1143.94549 C465.337398,1145.88584 462.645502,1146.94983 459.790116,1146.94983 C456.93473,1146.94983 454.242834,1145.88584 452.167525,1143.94549 Z M451.107684,1150.73633 L468.472548,1150.73633 C469.210714,1150.73633 469.811229,1151.33684 469.811229,1152.07501 L469.811229,1152.59916 L449.769003,1152.59916 L449.769003,1152.07501 C449.769003,1151.33684 450.369518,1150.73633 451.107684,1150.73633 Z M468.472548,1155.23107 L451.107684,1155.23107 C450.369518,1155.23107 449.769003,1154.63056 449.769003,1153.89239 L449.769003,1153.36816 L469.811229,1153.36816 L469.811229,1153.89239 C469.811229,1154.63056 469.210714,1155.23107 468.472548,1155.23107 Z" id="Combined-Shape"></path>
        </g>
    </g>
</svg>