<?xml version="1.0" encoding="UTF-8" standalone="no"?>
<svg width="35px" height="25px" viewBox="0 0 35 25" version="1.1" xmlns="http://www.w3.org/2000/svg" xmlns:xlink="http://www.w3.org/1999/xlink">
    <!-- Generator: Sketch 3.8.3 (29802) - http://www.bohemiancoding.com/sketch -->
    <title>“ copy 2</title>
    <desc>Created with Sketch.</desc>
    <defs></defs>
    <g id="Page-1" stroke="none" stroke-width="1" fill="none" fill-rule="evenodd">
        <g id="FindeSemanaLargo" transform="translate(-336.000000, -4668.000000)" fill="#FFFFFF">
            <g id="Group-2" transform="translate(0.000000, 4436.000000)">
                <path d="M350.769821,234.86445 C348.919854,235.580566 347.204185,236.58013 345.622762,237.863171 C344.041339,239.146213 343.041775,240.832044 342.624041,242.920716 C344.951418,242.920716 346.935627,243.472714 348.576726,244.576726 C350.217826,245.680739 351.038363,247.485921 351.038363,249.992327 C351.038363,252.080999 350.29242,253.722074 348.800512,254.915601 C347.308603,256.109128 345.578015,256.705882 343.608696,256.705882 C340.982937,256.705882 339.058403,255.82567 337.835038,254.065217 C336.611673,252.304765 336,250.231043 336,247.84399 C336,245.695641 336.432647,243.786027 337.297954,242.11509 C338.163261,240.444152 339.282176,238.952266 340.654731,237.639386 C342.027287,236.326507 343.608687,235.207592 345.398977,234.282609 C347.189267,233.357625 348.979531,232.596763 350.769821,232 L350.769821,234.86445 Z M370.731458,234.86445 C368.881491,235.580566 367.165822,236.58013 365.584399,237.863171 C364.002976,239.146213 363.003412,240.832044 362.585678,242.920716 C364.913055,242.920716 366.897264,243.472714 368.538363,244.576726 C370.179463,245.680739 371,247.485921 371,249.992327 C371,252.080999 370.254057,253.722074 368.762148,254.915601 C367.27024,256.109128 365.539652,256.705882 363.570332,256.705882 C360.944573,256.705882 359.02004,255.82567 357.796675,254.065217 C356.57331,252.304765 355.961637,250.231043 355.961637,247.84399 C355.961637,245.695641 356.394284,243.786027 357.259591,242.11509 C358.124898,240.444152 359.243812,238.952266 360.616368,237.639386 C361.988924,236.326507 363.570324,235.207592 365.360614,234.282609 C367.150904,233.357625 368.941168,232.596763 370.731458,232 L370.731458,234.86445 Z" id="“-copy-2"></path>
            </g>
        </g>
    </g>
</svg>