<?xml version="1.0" encoding="UTF-8" standalone="no"?>
<svg width="30px" height="23px" viewBox="0 0 30 23" version="1.1" xmlns="http://www.w3.org/2000/svg" xmlns:xlink="http://www.w3.org/1999/xlink">
    <!-- Generator: Sketch 3.8.3 (29802) - http://www.bohemiancoding.com/sketch -->
    <title>wedding-dinner</title>
    <desc>Created with Sketch.</desc>
    <defs></defs>
    <g id="Page-1" stroke="none" stroke-width="1" fill="none" fill-rule="evenodd">
        <g id="FindeSemanaLargo" transform="translate(-445.000000, -1064.000000)" fill="#606060">
            <g id="wedding-dinner" transform="translate(445.000000, 1064.000000)">
                <g id="Capa_1">
                    <g id="Group">
                        <path d="M29.5704029,0.129980789 C29.3232256,0.0370752624 29.0445171,0.106881327 28.8705463,0.305469006 C28.7747693,0.414535694 26.5254051,3.02299797 26.367242,6.85209332 C26.2668157,9.27897521 26.2688445,10.8148779 27.1408968,11.6775116 C27.523244,12.0559874 28.0316312,12.264221 28.7130595,12.3157506 L28.7130595,21.8800276 C28.7130595,22.230581 28.99684,22.5146282 29.3470642,22.5146282 C29.6972039,22.5146282 29.9810689,22.230581 29.9810689,21.8800276 L29.9810689,11.6915574 L29.9810689,11.6818269 L29.9810689,0.723882329 C29.9809844,0.459634643 29.8175802,0.223140156 29.5704029,0.129980789 L29.5704029,0.129980789 Z M28.7129749,11.0409649 C28.400622,11.0050888 28.1757616,10.916837 28.0320539,10.7748557 C27.5354168,10.2833364 27.555705,8.79684799 27.6339834,6.90446903 C27.7008498,5.28522216 28.205264,3.89620838 28.7129749,2.88778573 L28.7129749,11.0409649 L28.7129749,11.0409649 Z" id="Shape"></path>
                        <path d="M15.2585494,1.20990177 C9.69908878,1.20990177 5.17609909,5.737227 5.17609909,11.3021665 C5.17609909,16.866683 9.69917331,21.3940082 15.2585494,21.3940082 C20.8181791,21.3940082 25.3410842,16.866683 25.3410842,11.3021665 C25.3410842,5.737227 20.8181791,1.20990177 15.2585494,1.20990177 L15.2585494,1.20990177 Z M15.2585494,20.124807 C10.3983537,20.124807 6.44410853,16.1668454 6.44410853,11.3021665 C6.44410853,6.43706454 10.3983537,2.47910295 15.2585494,2.47910295 C20.1189141,2.47910295 24.0730748,6.43706454 24.0730748,11.3021665 C24.0730748,16.1668454 20.1189141,20.124807 15.2585494,20.124807 L15.2585494,20.124807 Z" id="Shape"></path>
                        <path d="M15.2585494,4.15656385 C11.3223945,4.15656385 8.12007889,7.36197375 8.12007889,11.3019127 C8.12007889,15.2418516 11.322479,18.4472615 15.2585494,18.4472615 C19.1946198,18.4472615 22.3970199,15.2418516 22.3970199,11.3019127 C22.3970199,7.36197375 19.1947043,4.15656385 15.2585494,4.15656385 L15.2585494,4.15656385 Z M15.2585494,17.1780603 C12.0214903,17.1780603 9.38808833,14.5420141 9.38808833,11.3019127 C9.38808833,8.06181128 12.0214903,5.42576503 15.2585494,5.42576503 C18.4956084,5.42576503 21.1290105,8.06181128 21.1290105,11.3019127 C21.1290105,14.5420141 18.4956084,17.1780603 15.2585494,17.1780603 L15.2585494,17.1780603 Z" id="Shape"></path>
                        <path d="M4.40514935,0.247085752 C4.05492514,0.247085752 3.77114462,0.531132976 3.77114462,0.881686343 L3.77114462,3.88393944 L3.15345496,3.88393944 L3.15345496,0.881686343 C3.15345496,0.531132976 2.86967444,0.247085752 2.51945023,0.247085752 C2.16931056,0.247085752 1.88544551,0.531132976 1.88544551,0.881686343 L1.88544551,3.88393944 L1.26800945,3.88393944 L1.26800945,0.881686343 C1.26800945,0.531132976 0.984228931,0.247085752 0.634004723,0.247085752 C0.283865048,0.247085752 0,0.531132976 0,0.881686343 L0,4.51854003 C0,6.73202689 0.776190848,8.48445527 1.88553005,8.97047471 L1.88553005,21.722139 C1.88553005,22.0726924 2.16939509,22.3567396 2.51953477,22.3567396 C2.86975898,22.3567396 3.15353949,22.0726924 3.15353949,21.722139 L3.15353949,8.97055933 C4.26304775,8.48453989 5.0392386,6.7321115 5.0392386,4.51862464 L5.0392386,0.881686343 C5.03915407,0.53121759 4.75537356,0.247085752 4.40514935,0.247085752 L4.40514935,0.247085752 Z M2.51953477,7.83657037 C2.07623867,7.83657037 1.43099093,6.78897172 1.29413044,5.15322523 L3.7449391,5.15322523 C3.60807861,6.78897172 2.96283087,7.83657037 2.51953477,7.83657037 L2.51953477,7.83657037 Z" id="Shape"></path>
                    </g>
                </g>
            </g>
        </g>
    </g>
</svg>