<?xml version="1.0" encoding="UTF-8" standalone="no"?>
<svg width="19px" height="30px" viewBox="0 0 19 30" version="1.1" xmlns="http://www.w3.org/2000/svg" xmlns:xlink="http://www.w3.org/1999/xlink">
    <!-- Generator: Sketch 3.8.3 (29802) - http://www.bohemiancoding.com/sketch -->
    <title>champagne-glass</title>
    <desc>Created with Sketch.</desc>
    <defs></defs>
    <g id="Page-1" stroke="none" stroke-width="1" fill="none" fill-rule="evenodd">
        <g id="FindeSemanaLargo" transform="translate(-145.000000, -1143.000000)" fill="#606060">
            <g id="champagne-glass" transform="translate(145.000000, 1143.000000)">
                <g id="Group">
                    <path d="M7.99291023,0 L0.457947533,0 C0.205041933,0 6.44256502e-06,0.213879013 6.44256502e-06,0.477692852 L6.44256502e-06,15.8953889 C6.44256502e-06,18.1643663 1.6522579,20.0378139 3.76745726,20.276724 L3.76745726,27.3461961 C2.38630694,27.4617978 1.07983153,28.0959828 0.128168889,29.1262708 C0.00073914831,29.2642921 -0.0353466096,29.4682988 0.0365196122,29.6445993 C0.108385834,29.8209635 0.274282626,29.9354188 0.457947533,29.9354188 L7.99291023,29.9354188 C8.17657514,29.9354188 8.34247193,29.8209635 8.41433816,29.6445993 C8.48620438,29.4682988 8.45011862,29.2642285 8.32268888,29.1262708 C7.37102623,28.0959828 6.06455083,27.4617978 4.68333944,27.3461961 L4.68333944,20.276724 C6.79859987,20.0377502 8.45085133,18.1643663 8.45085133,15.8953889 L8.45085133,0.477692852 C8.45085133,0.213879013 8.24581583,0 7.99291023,0 L7.99291023,0 Z M1.77150576,28.980033 C2.50384515,28.5289636 3.35408911,28.2821556 4.22539835,28.2821556 C5.0967076,28.2821556 5.94701262,28.5289636 6.67929095,28.980033 L1.77150576,28.980033 L1.77150576,28.980033 Z M7.53496914,15.8953889 C7.53496914,17.7990268 6.05032413,19.347707 4.22539835,19.347707 C2.40047258,19.347707 0.915888623,17.7990268 0.915888623,15.8953889 L0.915888623,0.955385705 L7.53496914,0.955385705 L7.53496914,15.8953889 L7.53496914,15.8953889 Z" id="Shape"></path>
                    <path d="M5.93535528,14.7368421 C5.68244968,14.7368421 5.47741419,14.9507211 5.47741419,15.214535 L5.47741419,15.8514588 C5.47741419,16.7014336 4.81449866,17.3930054 3.99960776,17.3930054 C3.74670216,17.3930054 3.54166667,17.6068845 3.54166667,17.8706983 C3.54166667,18.1345121 3.74670216,18.3483911 3.99960776,18.3483911 C5.31945504,18.3483911 6.39329637,17.2282969 6.39329637,15.8514588 L6.39329637,15.214535 C6.39329637,14.9507211 6.18826088,14.7368421 5.93535528,14.7368421 L5.93535528,14.7368421 Z" id="Shape"></path>
                    <path d="M1.97579823,5.69222781 L5.38929112,5.69222781 L5.38929112,13.7467662 C5.38929112,14.0105801 5.59432661,14.2244591 5.84723221,14.2244591 C6.10013781,14.2244591 6.3051733,14.0105801 6.3051733,13.7467662 L6.3051733,5.21453496 C6.3051733,4.95072112 6.10013781,4.73684211 5.84723221,4.73684211 L1.97579823,4.73684211 C1.72289263,4.73684211 1.51785714,4.95072112 1.51785714,5.21453496 C1.51785714,5.4783488 1.72289263,5.69222781 1.97579823,5.69222781 L1.97579823,5.69222781 Z" id="Shape"></path>
                    <ellipse id="Oval" cx="2.48175061" cy="7.31979812" rx="0.45794109" ry="0.477692852"></ellipse>
                    <ellipse id="Oval" cx="2.48175061" cy="9.42506127" rx="0.45794109" ry="0.477692852"></ellipse>
                    <path d="M18.0639466,15.8953889 L18.0639466,0.477692852 C18.0639466,0.213879013 17.8589111,0 17.6060055,0 L10.0710428,0 C9.81813717,0 9.61310168,0.213879013 9.61310168,0.477692852 L9.61310168,15.8953889 C9.61310168,18.1643663 11.2653531,20.0378139 13.3806136,20.276724 L13.3806136,27.3461961 C11.9994632,27.4617978 10.6929878,28.0959828 9.74126413,29.1262708 C9.61383439,29.2642921 9.57774863,29.4682988 9.64961485,29.6445993 C9.72148107,29.8209635 9.88737786,29.9354188 10.0710428,29.9354188 L17.6060055,29.9354188 C17.7896704,29.9354188 17.9555672,29.8209635 18.0274334,29.6445993 C18.0992996,29.4682988 18.0632139,29.2642285 17.9357841,29.1262708 C16.9841215,28.0959828 15.6776461,27.4617978 14.2964957,27.3461961 L14.2964957,20.276724 C16.4116951,20.0378139 18.0639466,18.1643663 18.0639466,15.8953889 L18.0639466,15.8953889 Z M10.5289839,15.8953889 L10.5289839,0.955385705 L17.1480644,0.955385705 L17.1480644,15.8953889 C17.1480644,17.7990268 15.6634194,19.347707 13.8385547,19.347707 C12.0136899,19.347707 10.5289839,17.7990268 10.5289839,15.8953889 L10.5289839,15.8953889 Z M11.384601,28.980033 C12.1169404,28.5289636 12.9671843,28.2821556 13.8384936,28.2821556 C14.7098028,28.2821556 15.5600468,28.5289636 16.2923862,28.980033 L11.384601,28.980033 L11.384601,28.980033 Z" id="Shape"></path>
                    <path d="M16.512344,15.8514588 L16.512344,15.214535 C16.512344,14.9507211 16.3073085,14.7368421 16.0544029,14.7368421 C15.8014973,14.7368421 15.5964618,14.9507211 15.5964618,15.214535 L15.5964618,15.8514588 C15.5964618,16.7014336 14.9335463,17.3930054 14.1186554,17.3930054 C13.8657498,17.3930054 13.6607143,17.6068845 13.6607143,17.8706983 C13.6607143,18.1345121 13.8657498,18.3483911 14.1186554,18.3483911 C15.4385637,18.3483911 16.512344,17.2282333 16.512344,15.8514588 L16.512344,15.8514588 Z" id="Shape"></path>
                    <path d="M15.5083387,5.69222781 L15.5083387,13.7467662 C15.5083387,14.0105801 15.7133742,14.2244591 15.9662798,14.2244591 C16.2191854,14.2244591 16.4242209,14.0105801 16.4242209,13.7467662 L16.4242209,5.21453496 C16.4242209,4.95072112 16.2191854,4.73684211 15.9662798,4.73684211 L12.0948459,4.73684211 C11.8419403,4.73684211 11.6369048,4.95072112 11.6369048,5.21453496 C11.6369048,5.4783488 11.8419403,5.69222781 12.0948459,5.69222781 L15.5083387,5.69222781 L15.5083387,5.69222781 Z" id="Shape"></path>
                    <ellipse id="Oval" cx="12.6007982" cy="12.582956" rx="0.45794109" ry="0.477692852"></ellipse>
                </g>
            </g>
        </g>
    </g>
</svg>