<?xml version="1.0" encoding="UTF-8" standalone="no"?>
<svg width="35px" height="25px" viewBox="0 0 35 25" version="1.1" xmlns="http://www.w3.org/2000/svg" xmlns:xlink="http://www.w3.org/1999/xlink">
    <!-- Generator: Sketch 3.8.3 (29802) - http://www.bohemiancoding.com/sketch -->
    <title>“ copy 3</title>
    <desc>Created with Sketch.</desc>
    <defs></defs>
    <g id="Page-1" stroke="none" stroke-width="1" fill="none" fill-rule="evenodd">
        <g id="FindeSemanaLargo" transform="translate(-1067.000000, -4706.000000)" fill="#FFFFFF">
            <g id="Group-2" transform="translate(0.000000, 4436.000000)">
                <path d="M1081.76982,272.86445 C1079.91985,273.580566 1078.20419,274.58013 1076.62276,275.863171 C1075.04134,277.146213 1074.04178,278.832044 1073.62404,280.920716 C1075.95142,280.920716 1077.93563,281.472714 1079.57673,282.576726 C1081.21783,283.680739 1082.03836,285.485921 1082.03836,287.992327 C1082.03836,290.080999 1081.29242,291.722074 1079.80051,292.915601 C1078.3086,294.109128 1076.57801,294.705882 1074.6087,294.705882 C1071.98294,294.705882 1070.0584,293.82567 1068.83504,292.065217 C1067.61167,290.304765 1067,288.231043 1067,285.84399 C1067,283.695641 1067.43265,281.786027 1068.29795,280.11509 C1069.16326,278.444152 1070.28218,276.952266 1071.65473,275.639386 C1073.02729,274.326507 1074.60869,273.207592 1076.39898,272.282609 C1078.18927,271.357625 1079.97953,270.596763 1081.76982,270 L1081.76982,272.86445 Z M1101.73146,272.86445 C1099.88149,273.580566 1098.16582,274.58013 1096.5844,275.863171 C1095.00298,277.146213 1094.00341,278.832044 1093.58568,280.920716 C1095.91306,280.920716 1097.89726,281.472714 1099.53836,282.576726 C1101.17946,283.680739 1102,285.485921 1102,287.992327 C1102,290.080999 1101.25406,291.722074 1099.76215,292.915601 C1098.27024,294.109128 1096.53965,294.705882 1094.57033,294.705882 C1091.94457,294.705882 1090.02004,293.82567 1088.79668,292.065217 C1087.57331,290.304765 1086.96164,288.231043 1086.96164,285.84399 C1086.96164,283.695641 1087.39428,281.786027 1088.25959,280.11509 C1089.1249,278.444152 1090.24381,276.952266 1091.61637,275.639386 C1092.98892,274.326507 1094.57032,273.207592 1096.36061,272.282609 C1098.1509,271.357625 1099.94117,270.596763 1101.73146,270 L1101.73146,272.86445 Z" id="“-copy-3" transform="translate(1084.500000, 282.352941) scale(-1, -1) translate(-1084.500000, -282.352941) "></path>
            </g>
        </g>
    </g>
</svg>