<?xml version="1.0" encoding="UTF-8" standalone="no"?>
<svg width="63px" height="61px" viewBox="0 0 63 61" version="1.1" xmlns="http://www.w3.org/2000/svg" xmlns:xlink="http://www.w3.org/1999/xlink">
    <!-- Generator: Sketch 3.8.3 (29802) - http://www.bohemiancoding.com/sketch -->
    <title>Group</title>
    <desc>Created with Sketch.</desc>
    <defs></defs>
    <g id="Page-1" stroke="none" stroke-width="1" fill="none" fill-rule="evenodd">
        <g id="FindeSemanaLargo" transform="translate(-691.000000, -1654.000000)" stroke-width="2" stroke="#8B572A">
            <g id="telescope" transform="translate(693.000000, 1655.000000)">
                <g id="Capa_1">
                    <g id="Group">
                        <polygon id="Shape" points="53.0215881 0.503211421 45.422507 3.11087142 45.9824393 4.73217305 23.1472008 12.5711265 24.1070847 15.3624807 3.82953689 22.3208996 4.86741138 25.3358817 0 27.0051036 1.22185224 30.5512017 6.08726386 28.8799832 7.12513835 31.8949653 27.4046859 24.9285596 28.3645699 27.7199139 51.1998084 19.8829572 51.7557411 21.5042588 59.3568219 18.8965988"></polygon>
                        <path d="M36.1016342,34.8939739 L36.1016342,30.3914676 L32.5120683,30.3914676 C32.08412,29.8004512 31.4002028,29.3511989 30.5982997,29.103611 L30.5982997,29.035724 L30.5563048,29.0916309 C30.166352,28.9698336 29.7564015,28.8879699 29.3124552,28.8879699 C27.9366216,28.8879699 26.7547645,29.4969563 26.1088426,30.3874742 L22.5192767,30.3874742 L22.5192767,34.8899806 L26.1288402,34.8899806 L8.34899035,58.1991864 L11.99055,58.1991864 L28.0226112,37.180169 L28.0226112,58.1312994 L30.5963,58.1312994 L30.5963,37.180169 L46.6283612,58.1991864 L51.1838103,58.1991864 L32.5940584,34.8919773 L36.1016342,34.8939739 L36.1016342,34.8939739 L36.1016342,34.8939739 Z" id="Shape"></path>
                    </g>
                </g>
            </g>
        </g>
    </g>
</svg>