<?xml version="1.0" encoding="UTF-8" standalone="no"?>
<svg width="20px" height="20px" viewBox="0 0 20 20" version="1.1" xmlns="http://www.w3.org/2000/svg" xmlns:xlink="http://www.w3.org/1999/xlink">
    <!-- Generator: Sketch 3.8.3 (29802) - http://www.bohemiancoding.com/sketch -->
    <title>Shape</title>
    <desc>Created with Sketch.</desc>
    <defs></defs>
    <g id="Page-1" stroke="none" stroke-width="1" fill="none" fill-rule="evenodd">
        <g id="FindeSemanaLargo" transform="translate(-436.000000, -4889.000000)" fill="#FFFFFF">
            <g id="Group-2" transform="translate(0.000000, 4436.000000)">
                <g id="phone-receiver-copy" transform="translate(436.000000, 453.000000)">
                    <g id="Capa_1">
                        <path d="M19.9689481,15.7900509 C20.0112823,16.1149437 19.9124449,16.3974291 19.6728507,16.6375071 L16.8599256,19.4340085 C16.7330268,19.5752512 16.5673878,19.6954114 16.3629396,19.7941774 C16.1584914,19.8930819 15.9576027,19.9566411 15.7602736,19.9848551 C15.7461737,19.9848551 15.7037704,19.98849 15.6332365,19.9955521 C15.5628408,20.0025796 15.4711916,20.0061799 15.3583926,20.0061799 C15.0904259,20.0061799 14.6568202,19.9602761 14.0575755,19.8684337 C13.4583308,19.7765913 12.7251718,19.5505684 11.8580986,19.1904688 C10.9908181,18.8302999 10.0073863,18.2899774 8.90763065,17.5697089 C7.80787495,16.849475 6.63755076,15.8607069 5.39676175,14.6036123 C4.40977049,13.6290377 3.59197774,12.6968359 2.94338348,11.8070416 C2.29478923,10.917178 1.77309385,10.0944393 1.37829735,9.3387909 C0.983466288,8.58314249 0.687368911,7.89811542 0.489970659,7.28370971 C0.292572408,6.66930399 0.158623595,6.13964389 0.0881242193,5.69472941 C0.0176248439,5.24981492 -0.0105749063,4.90023926 0.00352496877,4.64600241 C0.0176248439,4.39176556 0.0246747814,4.25052287 0.0246747814,4.22227433 C0.0528745316,4.02453456 0.116323969,3.82326372 0.215023095,3.61846181 C0.313722221,3.41365991 0.433571159,3.24769974 0.57456991,3.12058132 L3.38749499,0.302789587 C3.58489324,0.105049816 3.81049124,0.0061799308 4.06428899,0.0061799308 C4.24758737,0.0061799308 4.40973593,0.0591459408 4.55073469,0.165077961 C4.69173344,0.271009981 4.81158237,0.401659472 4.9102815,0.557026435 L7.17331145,4.85786645 C7.30021033,5.08385476 7.33546002,5.33102947 7.27906052,5.59939059 C7.22266101,5.86775171 7.10281208,6.09374002 6.9195137,6.27735552 L5.88317288,7.31548931 C5.85497313,7.34373785 5.83029835,7.38964173 5.80914854,7.45320094 C5.78799872,7.51676015 5.77742382,7.56972616 5.77742382,7.61209897 C5.83382332,7.90870863 5.96072219,8.24769109 6.15812045,8.62904636 C6.32731895,8.96802883 6.58816664,9.3811637 6.94066351,9.868451 C7.29316039,10.3557383 7.79370596,10.9171434 8.44230021,11.5527355 C9.07679459,12.2025211 9.64078959,12.7073945 10.1342852,13.0676326 C10.6276772,13.427663 11.0402368,13.6925969 11.3715838,13.8620882 C11.7029309,14.0315794 11.9567286,14.1339803 12.1329425,14.1691872 L12.3972461,14.2221878 C12.4254458,14.2221878 12.4713741,14.21156 12.5347544,14.1904082 C12.5982038,14.1691872 12.6440284,14.1445043 12.6722627,14.1162211 L13.8777675,12.8874097 C14.1317035,12.661456 14.4276626,12.5484619 14.7660942,12.5484619 C15.0058612,12.5484619 15.1961058,12.5908001 15.3371046,12.6755803 L15.3582198,12.6755803 L19.4400991,15.0908303 C19.7363002,15.2745843 19.912514,15.5075655 19.9689481,15.7900509 L19.9689481,15.7900509 Z" id="Shape"></path>
                    </g>
                </g>
            </g>
        </g>
    </g>
</svg>