<?xml version="1.0" encoding="UTF-8" standalone="no"?>
<svg width="40px" height="63px" viewBox="0 0 40 63" version="1.1" xmlns="http://www.w3.org/2000/svg" xmlns:xlink="http://www.w3.org/1999/xlink">
    <!-- Generator: Sketch 3.8.3 (29802) - http://www.bohemiancoding.com/sketch -->
    <title>Shape</title>
    <desc>Created with Sketch.</desc>
    <defs></defs>
    <g id="Page-1" stroke="none" stroke-width="1" fill="none" fill-rule="evenodd">
        <g id="FindeSemanaLargo" transform="translate(-347.000000, -1642.000000)" stroke-width="2" stroke="#8B572A">
            <g id="buddhist-yoga-pose" transform="translate(348.000000, 1643.000000)">
                <g id="Capa_1">
                    <path d="M31.3112233,51.0960461 C30.7652605,51.0122084 30.3530896,50.9541544 30.0176284,50.9072896 C28.9870377,50.7621547 28.7102944,50.7232358 27.5055124,50.3513986 C27.0306982,50.2048042 25.1733123,48.3474016 25.1733123,44.712218 C25.1733123,40.029144 26.2948423,35.8935287 26.7766897,34.3330446 C26.7894474,34.2923419 26.8208508,34.1744502 26.8643578,34.0148829 C26.9440114,33.7218563 27.5287379,31.9523455 27.5287379,31.9523455 C27.8457169,31.0521847 28.173818,30.121051 28.3869365,29.16462 L28.3983857,29.1156471 C28.720108,27.7307843 29.776214,22.668738 29.8511244,15.6667486 C29.8511244,14.9602092 29.2587106,14.3454534 28.9049306,13.9783188 C28.8401609,13.9108594 28.7827514,13.8518325 28.7398987,13.8022109 C28.3992035,13.4094548 27.9507224,12.9245907 27.4312563,12.3635104 C27.089089,11.9934569 26.7122471,11.5857819 26.306128,11.1398366 C25.6564682,10.4274593 24.9320616,9.77573059 24.2312075,9.14573154 C23.3694106,8.3714084 22.4788272,7.57065286 21.7468968,6.66789748 C20.6530084,5.31919683 19.6417178,2.95860583 19.8247413,1.05612224 C19.8525464,0.769095645 19.7849962,0.521150077 19.6346847,0.357366542 C19.4678537,0.175258711 19.2061579,0.118502041 18.975702,0.208826228 C18.7449191,0.118502041 18.4830597,0.175258711 18.3165558,0.357366542 C18.1664078,0.521150077 18.0985305,0.769095645 18.1266628,1.05612224 C18.3093591,2.95860583 17.2980685,5.31919683 16.2045073,6.66789748 C15.4722498,7.57065286 14.5816663,8.3714084 13.7198694,9.14573154 C13.0193425,9.77573059 12.2944452,10.4274593 11.6451125,11.1398366 C11.2391569,11.5857819 10.8618243,11.9934569 10.5198207,12.3635104 C10.000191,12.9245907 9.55203696,13.4094548 9.21101465,13.8022109 C9.16816197,13.8518325 9.11124313,13.9108594 9.04630987,13.9783188 C8.69252988,14.3454534 8.0999525,14.9602092 8.0999525,15.6703162 C8.17502648,22.668738 9.23113251,27.7307843 9.55285476,29.1156471 L9.56414039,29.16462 C9.7772589,30.121051 10.1055235,31.0523469 10.4221754,31.9523455 C10.4221754,31.9523455 11.0067384,33.7218563 11.086392,34.0148829 C11.1300625,34.1744502 11.1616296,34.2923419 11.1743872,34.3330446 C11.656071,35.8935287 12.7774375,40.029144 12.7774375,44.712218 C12.7774375,48.3475638 10.9202152,50.2048042 10.4455645,50.3513986 C9.24078255,50.7232358 8.9638757,50.7621547 7.93312144,50.9072896 C7.59766016,50.9541544 7.18581643,51.0122084 6.63985361,51.0960461 C0.722748445,51.7203694 0.0838836207,54.6326353 0.0838836207,55.8559848 C0.0838836207,56.1838762 0.255130797,57.24928 1.03612914,58.2314947 C1.73796451,59.1139798 3.1357471,60.1665728 5.81125934,60.1665728 C6.21263524,60.1665728 6.63723665,60.1428972 7.07361436,60.0961945 C8.85429059,59.9064651 10.6488694,59.6213845 12.384076,59.3458714 C13.0144357,59.2458175 13.6436505,59.1459257 14.2740102,59.050088 C15.1137265,58.9224666 16.627146,58.8378181 18.7715793,58.7988992 C18.8720051,58.7969533 18.9418451,58.7954938 18.975702,58.7945208 C19.0095589,58.7954938 19.079399,58.7971154 19.1794976,58.7988992 C21.3242581,58.8378181 22.8375139,58.9224666 23.6773938,59.050088 C24.3074264,59.1459257 24.9368048,59.2458175 25.5670009,59.3458714 C27.3023711,59.6213845 29.0971135,59.9064651 30.8774626,60.0961945 C31.3138403,60.142735 31.7384417,60.1665728 32.1398176,60.1665728 C34.8158205,60.1665728 36.2139302,59.1144663 36.9152749,58.2314947 C37.6962733,57.2494421 37.8671933,56.183714 37.8671933,55.8559848 C37.8668662,54.6326353 37.2283285,51.7203694 31.3112233,51.0960461 L31.3112233,51.0960461 Z M22.1044386,27.2535418 C22.0162799,27.2535418 21.9327008,27.2345689 21.8481403,27.1948392 C21.5728691,27.0860286 21.2199069,26.564678 21.1870314,26.3622999 C22.5579901,25.4165716 23.4842296,23.6201419 23.4842296,21.5582532 C23.4842296,18.5133389 23.160054,16.0447481 18.9753749,16.0447481 C14.7906958,16.0447481 14.4665202,18.5133389 14.4665202,21.5582532 C14.4665202,23.6201419 15.3927597,25.4165716 16.7635549,26.3622999 C16.7313336,26.5641915 16.370357,27.0607313 16.1026095,27.1948392 C16.0182126,27.2345689 15.9347971,27.2535418 15.8463112,27.2535418 C14.9652142,27.2538661 13.860858,25.3405177 13.5708664,24.5791675 C13.076752,23.2856019 12.4599678,21.0621999 12.3276478,17.8175021 L12.3222504,17.6926375 C12.2883935,17.009125 13.326835,15.2611817 13.4643889,14.9621551 C13.6534641,14.550426 16.1065349,10.8432425 16.8350305,9.96497354 C17.0929644,9.65443347 18.3996442,7.93421988 18.9755385,7.17497779 C19.5512692,7.93421988 20.8577854,9.65443347 21.1155557,9.96497354 C21.844542,10.8432425 24.2969586,14.550426 24.4863609,14.9621551 C24.6240783,15.2611817 25.6625199,17.009125 25.6288266,17.6926375 L25.6234291,17.8175021 C25.4909456,21.0623621 24.8744885,23.2857641 24.3798835,24.5791675 C24.0898918,25.3403555 22.9858627,27.2535418 22.1044386,27.2535418 L22.1044386,27.2535418 Z" id="Shape"></path>
                </g>
            </g>
        </g>
    </g>
</svg>