<?xml version="1.0" encoding="UTF-8" standalone="no"?>
<svg width="50px" height="62px" viewBox="0 0 50 62" version="1.1" xmlns="http://www.w3.org/2000/svg" xmlns:xlink="http://www.w3.org/1999/xlink">
    <!-- Generator: Sketch 3.8.3 (29802) - http://www.bohemiancoding.com/sketch -->
    <title>Group</title>
    <desc>Created with Sketch.</desc>
    <defs></defs>
    <g id="Page-1" stroke="none" stroke-width="1" fill="none" fill-rule="evenodd">
        <g id="FindeSemanaLargo" transform="translate(-1071.000000, -967.000000)" fill="#C3A791">
            <g id="telescope-(1)" transform="translate(1071.000000, 967.000000)">
                <g id="beauty-face-mask">
                    <g id="Capa_1">
                        <g id="Group">
                            <path d="M49.870302,29.1302811 C49.870302,23.806827 47.7063758,18.9208919 44.114094,15.1174432 C43.6419463,11.0276216 41.4872483,7.254 38.0139262,4.45310811 C34.4526846,1.5815027 29.8199664,0 24.9687919,0 C20.1181208,0 15.4854027,1.5815027 11.9243289,4.45327568 C8.45100671,7.25416757 6.29630872,11.0277892 5.82399329,15.1174432 C2.23171141,18.9208919 0.0679530201,23.8069946 0.0679530201,29.1302811 C0.0679530201,35.8237676 3.45234899,42.0375081 9.36191275,46.2268649 C10.8520134,55.1826811 17.2837248,61.9383351 24.9689597,61.9383351 C32.6543624,61.9383351 39.085906,55.1825135 40.5760067,46.2266973 C46.4860738,42.037173 49.870302,35.8236 49.870302,29.1302811 L49.870302,29.1302811 Z M24.9687919,2.51351351 C32.2288591,2.51351351 38.5291946,6.55775676 40.7973154,12.2054541 C37.6048658,9.88363784 32.4015101,7.19065946 24.9691275,7.19065946 C18.9629195,7.19065946 13.4464765,9.07395135 9.14077181,12.2054541 C11.4087248,6.55775676 17.7090604,2.51351351 24.9687919,2.51351351 L24.9687919,2.51351351 Z M2.58489933,29.1302811 C2.58489933,18.4186919 12.6265101,9.70417297 24.9692953,9.70417297 C26.3073826,9.70417297 27.6184564,9.80689189 28.8926174,10.0032811 C34.0493289,12.2349459 37.2471477,16.3463838 37.2471477,20.764973 C37.2471477,22.9577622 36.4704698,25.0821838 34.9934564,26.9763676 C32.2535235,24.2297676 28.7647651,22.5810703 24.9692953,22.5810703 C16.1842282,22.5810703 9.03691275,31.4088649 9.03691275,42.2598703 C9.03691275,42.4329676 9.03875839,42.6055622 9.04244966,42.7774865 C4.91073826,39.1558486 2.58489933,34.2973946 2.58489933,29.1302811 L2.58489933,29.1302811 Z M24.9691275,59.4248216 C18.5238255,59.4248216 13.1260067,53.5787243 11.8432886,45.8134757 C13.1062081,47.1193297 14.8753356,47.9337081 16.8323826,47.9337081 C20.659396,47.9337081 23.7729866,44.8243243 23.7729866,41.0024432 C23.7729866,37.1805622 20.659396,34.0711784 16.8323826,34.0711784 C15.260906,34.0711784 13.8102349,34.5963351 12.6456376,35.4789135 C14.7045302,29.3766054 19.4530201,25.0945838 24.9691275,25.0945838 C32.3558725,25.0945838 36.5463087,33.2666865 37.2924497,35.4790811 C36.1278523,34.5961676 34.6770134,34.0711784 33.1053691,34.0711784 C29.2786913,34.0711784 26.1652685,37.1805622 26.1652685,41.0024432 C26.1652685,44.8243243 29.2788591,47.9337081 33.1053691,47.9337081 C35.0627517,47.9337081 36.8317114,47.1191622 38.0946309,45.8133081 C36.8120805,53.5787243 31.4144295,59.4248216 24.9691275,59.4248216 L24.9691275,59.4248216 Z M12.4090604,41.0024432 C12.4090604,38.5665135 14.3934564,36.5846919 16.8325503,36.5846919 C19.2718121,36.5846919 21.2562081,38.5665135 21.2562081,41.0024432 C21.2562081,43.438373 19.2718121,45.4201946 16.8325503,45.4201946 C14.3934564,45.4203622 12.4090604,43.438373 12.4090604,41.0024432 L12.4090604,41.0024432 Z M37.5291946,41.0024432 C37.5291946,43.438373 35.5449664,45.4201946 33.1055369,45.4201946 C30.666443,45.4201946 28.6822148,43.438373 28.6822148,41.0024432 C28.6822148,38.5665135 30.666443,36.5846919 33.1055369,36.5846919 C35.5449664,36.5846919 37.5291946,38.5665135 37.5291946,41.0024432 L37.5291946,41.0024432 Z M40.8959732,42.7774865 C40.8996644,42.6055622 40.9015101,42.4329676 40.9015101,42.2600378 C40.9015101,37.112027 39.2917785,32.4203027 36.6629195,28.9095946 C38.6677852,26.4949459 39.7635906,23.6400973 39.7635906,20.764973 C39.7635906,17.7829405 38.6258389,14.9354649 36.595302,12.5360649 C43.0409396,15.9499189 47.3531879,22.1112108 47.3531879,29.1304486 C47.3535235,34.297227 45.0276846,39.1556811 40.8959732,42.7774865 L40.8959732,42.7774865 Z" id="Shape"></path>
                            <path d="M29.5151007,50.2434595 C28.9098993,49.9017892 28.1422819,50.1154378 27.8008389,50.7198541 C27.2239933,51.7398378 26.139094,52.3734108 24.9691275,52.3734108 C23.7993289,52.3734108 22.7142617,51.7398378 22.1374161,50.7196865 C21.7956376,50.1156054 21.0283557,49.9021243 20.4229866,50.2434595 C19.817953,50.5847946 19.6043624,51.3514162 19.9461409,51.9558324 C20.9686242,53.7637189 22.8932886,54.8869243 24.9691275,54.8869243 C27.0451342,54.8869243 28.9701342,53.7637189 29.9921141,51.9558324 C30.3340604,51.3514162 30.1204698,50.5847946 29.5151007,50.2434595 L29.5151007,50.2434595 Z" id="Shape"></path>
                            <path d="M19.1280201,41.0024432 C19.1280201,40.3083784 18.5645973,39.7456865 17.8696309,39.7456865 L15.795302,39.7456865 C15.1003356,39.7456865 14.5369128,40.3083784 14.5369128,41.0024432 C14.5369128,41.6965081 15.1003356,42.2592 15.795302,42.2592 L17.8696309,42.2592 C18.5645973,42.2592 19.1280201,41.6965081 19.1280201,41.0024432 L19.1280201,41.0024432 Z" id="Shape"></path>
                            <path d="M30.8102349,41.0024432 C30.8102349,41.6965081 31.3734899,42.2592 32.0686242,42.2592 L34.1426174,42.2592 C34.8377517,42.2592 35.4010067,41.6965081 35.4010067,41.0024432 C35.4010067,40.3083784 34.8377517,39.7456865 34.1426174,39.7456865 L32.0686242,39.7456865 C31.3734899,39.7456865 30.8102349,40.3083784 30.8102349,41.0024432 L30.8102349,41.0024432 Z" id="Shape"></path>
                        </g>
                    </g>
                </g>
            </g>
        </g>
    </g>
</svg>