<?xml version="1.0" encoding="UTF-8" standalone="no"?>
<svg width="30px" height="30px" viewBox="0 0 30 30" version="1.1" xmlns="http://www.w3.org/2000/svg" xmlns:xlink="http://www.w3.org/1999/xlink">
    <!-- Generator: Sketch 3.8.3 (29802) - http://www.bohemiancoding.com/sketch -->
    <title>telescope (1)</title>
    <desc>Created with Sketch.</desc>
    <defs></defs>
    <g id="Page-1" stroke="none" stroke-width="1" fill="none" fill-rule="evenodd">
        <g id="FindeSemanaLargo" transform="translate(-445.000000, -972.000000)" fill="#606060">
            <g id="telescope-(1)" transform="translate(445.000000, 972.000000)">
                <g id="Capa_1">
                    <g id="Group">
                        <path d="M28.9227213,3.33430132 C28.2106696,1.63374795 26.3974604,0.642374419 24.5875719,0.904984485 L24.3311056,0.292522471 C24.2825073,0.176410539 24.18927,0.0841779921 24.0718933,0.0361033565 C23.9545165,-0.0120344522 23.8227071,-0.0120344522 23.7053303,0.0361033565 L20.8733444,1.1964646 C20.5030137,1.34820609 20.2145529,1.63355843 20.0611585,1.99989853 C19.907764,2.36623862 19.907764,2.7697876 20.0611585,3.13612769 L20.0734198,3.16537678 L6.82798159,8.59263043 C6.58371274,8.69269642 6.39340656,8.88088872 6.29225052,9.12265171 C6.19109448,9.36428835 6.19109448,9.6304361 6.29225052,9.87200956 L6.69553359,10.8350816 L2.86054465,12.4064462 L2.84834717,12.3772603 C2.6394574,11.8784465 2.05934284,11.6406634 1.55509531,11.8473022 L0.611036134,12.2341104 C0.106788604,12.4407492 -0.133520851,13.0146757 0.0753689252,13.5134263 L1.24843413,16.3149583 C1.34959017,16.556595 1.53989636,16.7448504 1.7841652,16.8449164 C1.90633156,16.8949494 2.03462858,16.9199659 2.1629256,16.9199659 C2.29128648,16.9199659 2.41964737,16.8949494 2.54174986,16.8449164 L3.48574517,16.4581715 C3.48574517,16.4581083 3.48580903,16.4581083 3.48580903,16.4581083 C3.9899927,16.2514695 4.2302383,15.677543 4.02147624,15.1787292 L4.00927876,15.1495433 L7.8442677,13.5781154 L8.24755078,14.5411875 C8.34870682,14.7828241 8.539013,14.9710796 8.78328185,15.0711456 C8.9054482,15.1211786 9.03374522,15.1461951 9.16204225,15.1461951 C9.29040313,15.1461951 9.41876401,15.1211786 9.5408665,15.0710824 L12.7966349,13.7370587 C12.9365547,13.935864 13.1119812,14.1084526 13.3141017,14.2454748 L7.86910969,28.6089251 C7.77619173,28.8539731 7.90174273,29.1270698 8.14939621,29.2189234 C8.20482768,29.2394546 8.26160023,29.2491832 8.31747872,29.2491832 C8.51142499,29.2491832 8.69394012,29.131871 8.76597548,28.9416572 L10.373488,24.7006657 L18.5224883,24.7006657 L20.1301924,28.9417203 C20.2022916,29.1319342 20.3848067,29.2492464 20.5786891,29.2492464 C20.6345676,29.2492464 20.691404,29.2395177 20.7467716,29.2189865 C20.9944251,29.127133 21.1199761,28.8540362 21.0270581,28.6089883 L15.5820661,14.2455379 C16.1114111,13.8867154 16.4595181,13.2844243 16.4595181,12.6031037 C16.4595181,12.4823802 16.4479593,12.3643099 16.4270767,12.2494614 L22.7859854,9.64389194 L22.7981829,9.67307786 C22.9515773,10.039418 23.2400381,10.3247703 23.6103688,10.476575 C23.7955023,10.5523825 23.9900871,10.5903495 24.184672,10.5903495 C24.3792569,10.5903495 24.5738418,10.5523825 24.7589752,10.4765118 L27.5909612,9.31615054 C27.7083379,9.2680759 27.8015752,9.17584335 27.8501735,9.05973142 C27.8987718,8.94361949 27.8987718,8.81323047 27.8501735,8.69711853 L27.5937072,8.08459335 C29.0612999,7.00414592 29.6347091,5.03479152 28.9227213,3.33430132 L28.9227213,3.33430132 Z M3.11899067,15.5826572 L2.17486763,15.9694653 C2.17186616,15.9706656 2.16273402,15.9745823 2.15047268,15.9694653 C2.1382752,15.9644747 2.13444353,15.9553146 2.13316631,15.9523454 L0.960101103,13.1507503 C0.953395684,13.1347043 0.961186743,13.1161946 0.977407471,13.1095615 L1.92140278,12.7228165 C1.92542604,12.721174 1.92951315,12.7204159 1.9335364,12.7204159 C1.94605318,12.7204159 1.95799521,12.727744 1.96310411,12.7399364 L2.94049879,15.0739884 C2.94056265,15.0741779 2.94062651,15.0743042 2.94069038,15.0744938 C2.94069038,15.0744938 2.9408181,15.0746833 2.94088196,15.0748096 L3.13623317,15.5413421 C3.14300245,15.5574512 3.13527526,15.576024 3.11899067,15.5826572 L3.11899067,15.5826572 Z M3.6424604,14.2741553 L3.22697985,13.2818974 L7.06196879,11.7105327 L7.47744934,12.7027275 L3.6424604,14.2741553 L3.6424604,14.2741553 Z M15.5016649,12.6030405 C15.5016649,13.1777883 15.0289648,13.6453947 14.4479562,13.6453947 C13.8669476,13.6453947 13.3942475,13.1777883 13.3942475,12.6030405 C13.3942475,12.0282928 13.8669476,11.5606864 14.4479562,11.5606864 C15.0289648,11.5606864 15.5016649,12.0282928 15.5016649,12.6030405 L15.5016649,12.6030405 Z M18.1632694,23.753071 L10.7327069,23.753071 L14.2105844,14.5786491 C14.2884949,14.587746 14.3676189,14.5929893 14.4479562,14.5929893 C14.5282935,14.5929893 14.6074175,14.587746 14.685328,14.5786491 L18.1632694,23.753071 L18.1632694,23.753071 Z M16.0361826,11.3839284 C15.6678316,10.9153745 15.0930814,10.6130918 14.4479562,10.6130918 C13.3387521,10.6130918 12.4363304,11.5057891 12.4363304,12.6030405 C12.4363304,12.6875028 12.4422695,12.7705753 12.4526789,12.8522579 L9.17392042,14.1956945 C9.17085508,14.1969579 9.16165908,14.2007483 9.14958932,14.1956945 C9.13739185,14.1907038 9.13356018,14.1815437 9.13228296,14.1785746 L8.54578228,12.7779033 L8.54578228,12.7778402 L8.54571842,12.7777138 L7.76373881,10.9101943 L7.76373881,10.9101943 L7.76373881,10.9101943 L7.17717428,9.5093335 C7.17589705,9.50636437 7.17212925,9.49733064 7.17717428,9.48520142 C7.18221931,9.47319856 7.19141531,9.46940818 7.19448065,9.46808155 L20.4399827,4.04076473 L22.4195502,8.76831448 L16.0361826,11.3839284 L16.0361826,11.3839284 Z M24.3924762,9.60099749 C24.2585594,9.65595798 24.1109763,9.65595798 23.9770595,9.60099749 C23.8430788,9.54610017 23.7387936,9.44287553 23.6832982,9.31033862 L20.9461461,2.77351481 C20.8906508,2.6409779 20.8906508,2.49504832 20.9461461,2.36251142 C21.0016414,2.23003768 21.1059267,2.12687621 21.2399073,2.07191572 L23.6293994,1.09279775 L26.7819683,8.62187952 L24.3924762,9.60099749 L24.3924762,9.60099749 Z M24.9691422,1.81619151 C26.2681416,1.73116068 27.5257589,2.47432759 28.0377337,3.69691421 C28.5497084,4.91956401 28.1915751,6.32465737 27.2123285,7.17325998 L24.9691422,1.81619151 L24.9691422,1.81619151 Z" id="Shape"></path>
                        <path d="M14.1153222,11.8181818 C13.9895157,11.8181818 13.8662637,11.8687202 13.7768581,11.9571624 C13.6874525,12.0449728 13.6363636,12.1674652 13.6363636,12.2919791 C13.6363636,12.4164299 13.6874525,12.5389855 13.7768581,12.6267959 C13.8662637,12.7152381 13.9895157,12.7657765 14.1153222,12.7657765 C14.2411286,12.7657765 14.3650192,12.7152381 14.4537862,12.6267959 C14.5431918,12.5383538 14.5942807,12.4164299 14.5942807,12.2919791 C14.5942807,12.1674652 14.5431918,12.0449728 14.4537862,11.9571624 C14.3650192,11.8687202 14.2411286,11.8181818 14.1153222,11.8181818 L14.1153222,11.8181818 Z" id="Shape"></path>
                        <path d="M19.5358551,4.58162414 L18.4776122,5.01524345 C18.2332156,5.11537262 18.1171799,5.39257564 18.2183998,5.63427546 C18.2948416,5.81678219 18.4731419,5.92689269 18.6610852,5.92689269 C18.7222003,5.92689269 18.7842734,5.91520569 18.8441751,5.89069457 L19.902418,5.45707525 C20.1468146,5.35694609 20.2628503,5.07974306 20.1616304,4.83804325 C20.0604105,4.59621709 19.7802516,4.48155814 19.5358551,4.58162414 L19.5358551,4.58162414 Z" id="Shape"></path>
                        <path d="M15.2920615,6.39982383 L11.2048849,8.07460263 C10.9604884,8.1747318 10.8444527,8.45187165 10.9456726,8.69363463 C11.0221144,8.87614136 11.2004146,8.98625186 11.388358,8.98625186 C11.4494731,8.98625186 11.5115461,8.97456486 11.5714478,8.95005374 L15.6586244,7.27527495 C15.903021,7.17514578 16.0190567,6.89800593 15.9178368,6.65624294 C15.816553,6.41447996 15.5363942,6.29969466 15.2920615,6.39982383 L15.2920615,6.39982383 Z" id="Shape"></path>
                    </g>
                </g>
            </g>
        </g>
    </g>
</svg>