<?xml version="1.0" encoding="UTF-8" standalone="no"?>
<svg width="23px" height="30px" viewBox="0 0 23 30" version="1.1" xmlns="http://www.w3.org/2000/svg" xmlns:xlink="http://www.w3.org/1999/xlink">
    <!-- Generator: Sketch 3.8.3 (29802) - http://www.bohemiancoding.com/sketch -->
    <title>coffee-cup-with-steam</title>
    <desc>Created with Sketch.</desc>
    <defs></defs>
    <g id="Page-1" stroke="none" stroke-width="1" fill="none" fill-rule="evenodd">
        <g id="FindeSemanaLargo" transform="translate(-145.000000, -972.000000)" fill="#606060">
            <g id="coffee-cup-with-steam" transform="translate(145.000000, 972.000000)">
                <g id="Capa_1">
                    <g id="Group">
                        <path d="M22.7298744,18.6834023 C22.7298744,16.5831398 21.1677119,14.8461802 19.147747,14.566455 L19.147747,14.3801565 C19.147747,13.9400731 18.791763,13.5834286 18.3527877,13.5834286 L0.872404455,13.5834286 C0.43335989,13.5834286 0.0773067219,13.9402118 0.0773067219,14.3801565 L0.0773067219,20.1429256 C0.0773067219,25.4112338 4.35485916,29.6976948 9.61259606,29.6976948 C13.9375623,29.6976948 17.5969361,26.7961267 18.7600616,22.8345437 C20.964421,22.7379959 22.7298744,20.9157939 22.7298744,18.6834023 L22.7298744,18.6834023 Z M17.5577592,20.1429256 C17.5577592,24.5329397 13.993559,28.1043085 9.61259606,28.1043085 C5.23163316,28.1043085 1.66736375,24.5329397 1.66736375,20.1429256 L1.66736375,15.176815 L17.5576899,15.176815 L17.5576899,20.1429256 L17.5577592,20.1429256 Z M19.0882894,21.1989177 C19.1264973,20.8519836 19.1476778,20.4999862 19.1476778,20.1427869 L19.1476778,16.1819669 C20.286508,16.4426183 21.1396097,17.4640696 21.1396097,18.6832636 C21.1397482,19.9234735 20.2571599,20.9610161 19.0882894,21.1989177 L19.0882894,21.1989177 Z" id="Shape"></path>
                        <path d="M6.33675464,6.74587109 C7.27623941,6.88736362 7.9252889,7.76891763 7.78401663,8.71032852 C7.71549163,9.16615644 7.47385445,9.568023 7.10368098,9.84192203 C6.73336908,10.1156824 6.27930438,10.2281134 5.82350926,10.1601415 C5.38847929,10.0954989 4.98459705,10.3938816 4.91897917,10.8291793 C4.85356893,11.2641301 5.15258714,11.6698114 5.58671729,11.7354945 C5.75408443,11.7608105 5.92131313,11.7732258 6.08750358,11.7732258 C6.79012716,11.7732258 7.47205481,11.5494734 8.04801095,11.123678 C8.75997886,10.5973119 9.22470299,9.8245129 9.35628485,8.94712044 C9.62823915,7.13705634 8.37976889,5.44254447 6.57354661,5.17017134 C5.63406184,5.02826264 4.98494314,4.1471248 5.12628462,3.20529775 C5.19480962,2.74946983 5.43644679,2.34760327 5.80668948,2.07405103 C6.17707061,1.79973584 6.63196591,1.68813707 7.08686121,1.75576218 C7.52161431,1.82075165 7.92577342,1.52167526 7.99132208,1.08672442 C8.05680153,0.651842944 7.75785254,0.245745487 7.32365318,0.180409227 C6.4490249,0.0478640109 5.57446585,0.265235391 4.86242873,0.791809583 C4.15046083,1.31859185 3.68573669,2.09159888 3.55408562,2.96843647 C3.28220054,4.77905544 4.53067079,6.47356731 6.33675464,6.74587109 L6.33675464,6.74587109 Z" id="Shape"></path>
                        <path d="M12.6518532,6.74587109 C13.5913379,6.88736362 14.2404566,7.76891763 14.0991152,8.71032852 C14.0305902,9.16615644 13.788953,9.568023 13.4188487,9.84192203 C13.0483292,10.1156824 12.5941953,10.2281134 12.138677,10.1601415 C11.7038547,10.0954989 11.2995571,10.3938816 11.2341469,10.8291793 C11.1687367,11.2641301 11.4676165,11.6698114 11.901885,11.7354945 C12.0691137,11.7608105 12.2364809,11.7732258 12.4025329,11.7732258 C13.1052257,11.7732258 13.7870841,11.5494734 14.3630403,11.123678 C15.074939,10.5973119 15.5397323,9.8245129 15.6712449,8.94712044 C15.9431992,7.13705634 14.694729,5.44254447 12.8885759,5.17017134 C11.9490912,5.02826264 11.3000417,4.1471248 11.4413139,3.20529775 C11.5097697,2.74946983 11.7514069,2.34760327 12.1217188,2.07405103 C12.4922384,1.79973584 12.9467876,1.68813707 13.4018213,1.75576218 C13.834844,1.82075165 14.2406643,1.52167526 14.3062822,1.08672442 C14.3716232,0.651842944 14.0726742,0.245745487 13.6386133,0.180409227 C12.7628775,0.0478640109 11.8892183,0.265235391 11.1771812,0.791809583 C10.4652133,1.31859185 10.0004891,2.09159888 9.86897649,2.96843647 C9.59716063,4.77905544 10.8457001,6.47356731 12.6518532,6.74587109 L12.6518532,6.74587109 Z" id="Shape"></path>
                    </g>
                </g>
            </g>
        </g>
    </g>
</svg>