<?xml version="1.0" encoding="UTF-8" standalone="no"?>
<svg width="114px" height="91px" viewBox="0 0 114 91" version="1.1" xmlns="http://www.w3.org/2000/svg" xmlns:xlink="http://www.w3.org/1999/xlink">
    <!-- Generator: Sketch 3.8.3 (29802) - http://www.bohemiancoding.com/sketch -->
    <title>logo santa mónica</title>
    <desc>Created with Sketch.</desc>
    <defs></defs>
    <g id="Page-1" stroke="none" stroke-width="1" fill="none" fill-rule="evenodd">
        <g id="Home-LG" transform="translate(-663.000000, -105.000000)" fill="#FFFFFF">
            <g id="logo-santa-mónica" transform="translate(663.000000, 105.000000)">
                <g id="Capa_1">
                    <path d="M44.4344395,68.4187079 C29.6280238,68.3908614 17.1671267,57.325069 15.3889048,42.6250709 C13.6106829,27.9250727 23.073533,14.2069583 37.4461883,10.6490449 C37.6669154,10.5798906 37.813709,10.3711355 37.8041294,10.1400169 C37.7945499,9.9088984 37.6309842,9.7130085 37.4052915,9.66235955 C28.0601638,8.2424371 18.563713,11.0071171 11.4408722,17.2213215 C4.31803136,23.4355259 0.290606732,32.4695269 0.42941704,41.9213483 C0.649237668,58.112191 14.4928251,72.5955056 30.6726457,73.5617416 C37.1406121,73.9477147 43.5735624,72.3630169 49.1222422,69.0168539 C49.3356181,68.892472 49.4295629,68.63332 49.3454619,68.4010896 C49.261361,68.1688591 49.0232662,68.0299653 48.7797309,68.0710674 C47.3419781,68.2949997 45.8895056,68.4112032 44.4344395,68.4187079 L44.4344395,68.4187079 Z" id="Shape"></path>
                    <path d="M45.5284305,15.7358427 L46.2799103,19.4269663 C46.2982151,19.5115857 46.3474343,19.5863297 46.4179372,19.636573 L50.0424215,22.2643258 C50.1323674,22.329755 50.1855754,22.434276 50.1855605,22.5455056 L50.1855605,26.8092135 C50.1853289,26.9115695 50.2302142,27.0088259 50.3082511,27.0750562 L51.0955157,27.7294382 C51.2225139,27.8311231 51.4030466,27.8311231 51.5300448,27.7294382 L55.1391928,24.9227528 C55.2122092,24.8666917 55.2600093,24.7839566 55.2721076,24.6926966 L55.4868161,22.9442697 C55.5014903,22.8225688 55.4509881,22.7021345 55.3539013,22.6273034 L54.7608969,22.1723034 C54.6714059,22.1047229 54.6200106,21.9981199 54.62287,21.8860112 L54.6535426,20.8175281 C54.6566478,20.6923604 54.5922085,20.5751924 54.484843,20.5107865 L46.0498655,15.3626404 C45.9306505,15.289088 45.7789387,15.2942782 45.6650287,15.3758061 C45.5511187,15.4573339 45.4972684,15.5992689 45.5284305,15.7358427 L45.5284305,15.7358427 Z" id="Shape"></path>
                    <path d="M68.9827803,17.0752809 L69.7240359,11.6408427 C69.7326539,11.57701 69.755354,11.5158916 69.7904933,11.4619101 L72.2698655,7.60207865 C72.3158576,7.53221158 72.3407086,7.45055442 72.341435,7.36691011 L72.341435,5.71050562 C72.3421614,5.62686132 72.3670123,5.54520415 72.4130045,5.47533708 L73.8086099,3.30258427 C73.8508762,3.23478133 73.9110169,3.17994444 73.9824215,3.14410112 L77.1621525,1.61039326 C77.290049,1.54873672 77.3797582,1.42848229 77.4024215,1.28831461 L77.4791031,0.812865169 C77.5118821,0.601052462 77.6941965,0.444775281 77.9085202,0.444775281 L77.9085202,0.444775281 C78.0237645,0.444775281 78.1342887,0.490558155 78.2157787,0.572052194 C78.2972687,0.653546232 78.3430493,0.764075868 78.3430493,0.879325843 L78.3430493,2.20342697 C78.3432074,2.27866134 78.3238309,2.35264793 78.2868161,2.41814607 L76.0834978,6.36488764 L74.7032287,8.84949438 C74.6368704,8.97594186 74.6368704,9.12692331 74.7032287,9.25337079 L75.7512108,11.3903371 L76.3135426,12.6326404 C76.336587,12.684558 76.369586,12.7314537 76.4106726,12.7706742 L79.7846637,15.981236 C79.850945,16.0442259 79.8956681,16.1265203 79.9124664,16.2164045 L80.5923767,19.7337079 C80.6151355,19.8606509 80.5803354,19.9911452 80.4973888,20.0898961 C80.4144421,20.1886469 80.2919195,20.2454508 80.1629596,20.2449438 L79.4626009,20.2449438 C79.3499608,20.2446856 79.2418223,20.2006949 79.1609865,20.1222472 L78.4299552,19.4269663 C78.3465938,19.3460169 78.2342859,19.301828 78.1181166,19.3042697 L70.0358744,19.5036517 C69.8399322,19.5099853 69.6640152,19.3843241 69.6064574,19.1969101 L69.0134529,17.2593258 C68.990024,17.2009222 68.9795586,17.1381265 68.9827803,17.0752809 L68.9827803,17.0752809 Z" id="Shape"></path>
                    <path d="M93.3879821,27.8163483 L96.2252018,31.6966292 C96.2605228,31.7468704 96.3080135,31.7873275 96.3632287,31.8142135 L97.5083408,32.3254494 C97.5960768,32.3657438 97.6641448,32.4393344 97.6974888,32.5299438 L98.3773991,34.3755056 C98.401773,34.4406694 98.4443602,34.4974551 98.5000897,34.5391011 L99.8036771,35.5360112 C99.9365164,35.6428661 100.125815,35.6428661 100.258655,35.5360112 L102.242152,33.9051685 C102.303947,33.8540833 102.347088,33.7839744 102.364843,33.7057865 L102.692018,32.2641011 C102.711946,32.1747497 102.7649,32.0962287 102.840269,32.0442697 L105.708161,30.0913483 C105.759855,30.0562828 105.819722,30.035152 105.881973,30.03 L106.643677,29.9686517 C106.773625,29.9595533 106.888733,29.8815106 106.945291,29.7641573 L107.538296,28.5065169 C107.589209,28.397716 107.690651,28.3211524 107.809238,28.3020225 L109.031031,28.0975281 C109.112221,28.0832725 109.186141,28.0418034 109.240628,27.9799438 L110.815157,26.2110674 C110.846295,26.1767967 110.870588,26.1368844 110.886726,26.0934831 L111.878475,23.3788202 C111.932826,23.2324888 111.887537,23.0677939 111.766009,22.9698315 L111.403049,22.678427 C111.327874,22.6179089 111.231693,22.5898222 111.135766,22.6003748 C111.039838,22.6109273 110.952062,22.6592501 110.891839,22.7346629 L109.05148,25.0505618 C109.002494,25.1133165 108.934236,25.1582251 108.85722,25.1783708 L100.289327,27.3511236 L100.192197,27.3511236 L93.6895964,27.2386517 C93.5511917,27.2351979 93.4228768,27.3107855 93.3587985,27.4335179 C93.2947201,27.5562503 93.3060403,27.7047483 93.3879821,27.8163483 L93.3879821,27.8163483 Z" id="Shape"></path>
                    <path d="M91.2357848,71.0311236 L95.0800897,67.7643258 C95.0998908,67.7482897 95.1171295,67.7293262 95.1312108,67.7080899 L96.2916592,65.8267416 C96.3311847,65.7631501 96.3970822,65.7205739 96.4712969,65.7106781 C96.5455117,65.7007823 96.6202619,65.7246046 96.6750673,65.775618 L100.953901,69.814382 C100.97608,69.8360193 101.002081,69.8533538 101.030583,69.8655056 L103.469058,70.8879775 L103.469058,70.8879775 L105.580359,71.946236 C105.615349,71.9633889 105.653858,71.9721415 105.692825,71.9717978 L107.35426,71.9717978 C107.414384,71.9716444 107.472448,71.9498696 107.517848,71.9104494 L108.59139,70.9493258 C108.63679,70.9099057 108.694853,70.8881308 108.754978,70.8879775 L111.091211,70.8879775 C111.170056,70.887175 111.243921,70.8492935 111.290583,70.7857303 L111.863139,69.998427 C111.922422,69.9163227 112.025307,69.8779912 112.123857,69.9012921 L113.580807,70.2489326 L113.580807,70.6988202 L112.558386,70.6425843 C112.480402,70.6380853 112.404784,70.6702246 112.353901,70.7294944 L111.33148,71.9308989 C111.306296,71.9598019 111.274816,71.9825391 111.239462,71.9973596 L107.323587,73.6179775 L107.298027,73.6179775 L105.554798,74.1292135 L105.488341,74.1292135 L100.964126,74.1292135 L100.882332,74.1292135 L95.1260987,72.0842697 L95.0852018,72.0842697 L91.3533632,71.4707865 C91.2569749,71.4542353 91.1790328,71.3830982 91.1537653,71.2886151 C91.1284978,71.1941319 91.160526,71.0935827 91.2357848,71.0311236 L91.2357848,71.0311236 Z" id="Shape"></path>
                    <path d="M76.7736323,77.3295506 L80.1067265,77.0739326 L80.1527354,77.0739326 L81.7323767,76.8285393 C82.0516898,76.7807001 82.3534274,76.988574 82.4225112,77.3039888 L82.4225112,77.3806742 C82.4666116,77.5896707 82.3988365,77.8065616 82.2435874,77.9532584 L81.9470852,78.2344382 C81.8356045,78.3405667 81.76809,78.4847264 81.7579372,78.6383146 L81.6096861,80.9951124 C81.6014367,81.0527588 81.6014367,81.1112862 81.6096861,81.1689326 L82.4838565,85.0032022 L83.506278,88.8732584 C83.5231488,88.933053 83.5490042,88.9899378 83.5829596,89.0419663 L84.4264574,90.3711798 L83.8283408,90.5858989 L81.4000897,87.3497753 L78.0823318,82.8969101 C78.0514619,82.8550178 78.0153875,82.8172237 77.9749776,82.7844382 L77.2081614,82.1709551 C77.0535517,82.047595 76.9679024,81.8572536 76.9781166,81.6597191 L77.0036771,80.4276404 C77.0032998,80.2216929 76.8996155,80.0296755 76.7276233,79.9164045 L76.3391031,79.6607865 C76.1511017,79.5379875 76.0452134,79.3222784 76.0630493,79.098427 L76.1601794,77.8919101 C76.1868277,77.5732038 76.4538314,77.3284383 76.7736323,77.3295506 L76.7736323,77.3295506 Z" id="Shape"></path>
                    <path d="M31.541704,33.9460674 C31.545732,33.8548732 31.5067963,33.7670609 31.4365099,33.7088206 C31.3662234,33.6505804 31.2727085,33.6286427 31.1838565,33.6495506 L31.1838565,33.3581461 L33.7041256,33.3581461 L33.7041256,33.6546629 C33.6296012,33.6533145 33.5570588,33.6787056 33.4996413,33.726236 C33.436004,33.7808898 33.4018953,33.8623755 33.4076233,33.9460674 L33.4076233,41.3743258 C33.4018953,41.4580177 33.436004,41.5395035 33.4996413,41.5941573 C33.5570588,41.6416877 33.6296012,41.6670788 33.7041256,41.6657303 L33.7041256,41.9622472 L31.1838565,41.9622472 L31.1838565,41.6708427 C31.2727085,41.6917506 31.3662234,41.6698129 31.4365099,41.6115726 C31.5067963,41.5533324 31.545732,41.46552 31.541704,41.3743258 L31.541704,38.3069101 L26.2762332,38.3069101 L26.2762332,41.3743258 C26.2705052,41.4580177 26.3046138,41.5395035 26.3682511,41.5941573 C26.4256687,41.6416877 26.4982111,41.6670788 26.5727354,41.6657303 L26.5727354,41.9622472 L24.0984753,41.9622472 L24.0984753,41.6708427 C24.1822024,41.6863261 24.2682794,41.6607629 24.3299853,41.6020888 C24.3916913,41.5434146 24.421558,41.4587309 24.4103139,41.3743258 L24.4103139,33.9460674 C24.421558,33.8616624 24.3916913,33.7769786 24.3299853,33.7183045 C24.2682794,33.6596304 24.1822024,33.6340672 24.0984753,33.6495506 L24.0984753,33.3581461 L26.5829596,33.3581461 L26.5829596,33.6546629 C26.5084353,33.6533145 26.4358929,33.6787056 26.3784753,33.726236 C26.3148381,33.7808898 26.2807294,33.8623755 26.2864574,33.9460674 L26.2864574,36.727191 L31.541704,36.727191 L31.541704,33.9460674 L31.541704,33.9460674 Z" id="Shape"></path>
                    <path d="M35.104843,41.7270787 C35.2137557,41.7121407 35.3107838,41.6505622 35.3706726,41.5583708 C35.4409882,41.4536728 35.5041802,41.3443623 35.5598206,41.2311798 L37.9727354,36.1597191 L38.1363229,35.8478652 C38.1783654,35.7725059 38.2028315,35.688618 38.2078924,35.6024719 C38.2148937,35.5285819 38.1791843,35.4571597 38.1158744,35.418427 C38.0548667,35.3842396 37.9895233,35.3584449 37.9216143,35.3417416 L37.9216143,35.106573 L40.1249327,35.106573 L40.1249327,35.3417416 C40.061519,35.3598945 39.9999132,35.3838535 39.9408969,35.4133146 C39.8747628,35.4519252 39.838434,35.5266048 39.8488789,35.6024719 C39.8460858,35.6648666 39.8547491,35.727245 39.8744395,35.7865169 C39.9051121,35.8546816 39.9511211,35.9467041 40.0124664,36.0625843 L42.7423318,41.4101124 C42.7769316,41.4964354 42.8377185,41.5697408 42.9161435,41.6197191 C42.9990377,41.6667891 43.0843582,41.7094514 43.1717489,41.7475281 L43.1717489,41.9826966 L40.896861,41.9826966 L40.896861,41.7270787 C40.9419582,41.723046 40.9856034,41.7090788 41.0246637,41.6861798 C41.0713869,41.6657875 41.1015228,41.6195768 41.1013453,41.5685955 C41.0921958,41.4500283 41.0573047,41.334882 40.9991031,41.2311798 L40.4878924,40.2649438 L37.3183857,40.2649438 L36.8480717,41.1902809 C36.7808141,41.3121712 36.7374372,41.4457787 36.7202691,41.5839326 C36.7202691,41.6793633 36.8020628,41.7270787 36.9656502,41.7270787 L36.9656502,41.9622472 L35.104843,41.9622472 L35.104843,41.7270787 L35.104843,41.7270787 Z M40.0175785,39.3038202 L38.9235874,36.8805618 L37.6966816,39.3038202 L40.0175785,39.3038202 L40.0175785,39.3038202 Z" id="Shape"></path>
                    <path d="M51.1210762,41.0266854 L50.9779372,41.0266854 C50.8455242,41.0581757 50.7193635,41.1117534 50.6047534,41.1851685 C50.4104933,41.290824 50.1634081,41.4084082 49.8634978,41.5379213 C49.5325784,41.6783982 49.1906049,41.791255 48.8410762,41.8753371 C48.4480548,41.9723695 48.0445474,42.0204493 47.6397309,42.0184831 C47.106132,42.0203167 46.5747469,41.9498058 46.0600897,41.8088764 C45.5784873,41.6807869 45.1256726,41.4621759 44.7258296,41.1647191 C44.3405191,40.8762001 44.0258595,40.5038346 43.8056502,40.0757865 C43.3452574,39.1051455 43.3452574,37.9790118 43.8056502,37.0083708 C44.0260618,36.5776052 44.3405523,36.2019452 44.7258296,35.9092135 C45.1256828,35.6071081 45.5780824,35.3817639 46.0600897,35.2446067 C46.5733873,35.0960309 47.1053721,35.0219971 47.6397309,35.0247753 C48.0442141,35.020563 48.4481824,35.0547993 48.8461883,35.1270225 C49.2074439,35.1951873 49.5226906,35.2684644 49.7919283,35.3468539 C50.0093991,35.4064393 50.2228388,35.4798662 50.4309417,35.5666854 C50.5214241,35.6132837 50.6176906,35.6476663 50.7172197,35.6689326 C50.7637593,35.6680022 50.8064209,35.6427918 50.8296861,35.6024719 L50.9012556,35.5002247 L51.1210762,35.6689326 L50.0986547,37.2486517 L49.9657399,37.1566292 C49.9676597,37.1311035 49.9676597,37.1054696 49.9657399,37.0799438 L49.9657399,36.9879213 C49.9208803,36.8600743 49.8271074,36.7552642 49.7050224,36.6965169 C49.5236358,36.5854075 49.3297293,36.4961719 49.1273543,36.4306742 C48.8880435,36.3504791 48.6438732,36.2855915 48.3963229,36.2364045 C48.1626143,36.1871929 47.9245663,36.161503 47.6857399,36.1597191 C47.3303953,36.1590661 46.9770212,36.2125058 46.6377578,36.3182022 C46.320141,36.4130314 46.0234728,36.5674453 45.7635874,36.7732022 C45.5155604,36.9733726 45.3133451,37.2244108 45.170583,37.509382 C44.8756292,38.1412603 44.8756292,38.871324 45.170583,39.5032022 C45.3132106,39.78826 45.5154473,40.0393247 45.7635874,40.239382 C46.0234046,40.4452443 46.3200939,40.5996691 46.6377578,40.694382 C46.9770212,40.8000785 47.3303953,40.8535182 47.6857399,40.8528652 C47.9797387,40.8513843 48.2727572,40.8188251 48.5599103,40.7557303 C48.8439638,40.6970688 49.1226735,40.6149908 49.3931839,40.5103371 C49.6182734,40.4259464 49.8313764,40.312515 50.0270852,40.1729213 C50.1618603,40.0982494 50.2557693,39.9667704 50.2826906,39.8150562 C50.2846427,39.7578844 50.2665605,39.7018271 50.2315695,39.656573 L50.4156054,39.5543258 L51.2744395,40.9346629 L51.1210762,41.0266854 Z" id="Shape"></path>
                    <path d="M53.0125561,41.7270787 C53.2374888,41.7270787 53.3499552,41.6486891 53.3499552,41.4919101 L53.3499552,35.5769101 C53.3499552,35.4201311 53.2374888,35.3417416 53.0125561,35.3417416 L53.0125561,35.106573 L55.1749776,35.106573 L55.1749776,35.3417416 C54.9500448,35.3417416 54.8375785,35.4201311 54.8375785,35.5769101 L54.8375785,41.4970225 C54.8375785,41.6538015 54.9500448,41.732191 55.1749776,41.732191 L55.1749776,41.9673596 L53.0125561,41.9673596 L53.0125561,41.7270787 L53.0125561,41.7270787 Z" id="Shape"></path>
                    <path d="M63.5843946,36.5124719 C63.5883965,36.4258471 63.5454145,36.3437866 63.4719283,36.2977528 C63.3526518,36.2405654 63.2203944,36.2158761 63.0885202,36.2261798 L58.8659193,36.2261798 L58.8659193,37.8314607 L61.4219731,37.8314607 C61.560262,37.8382921 61.6983096,37.8138267 61.8258296,37.7598876 C61.9397363,37.672164 61.9949967,37.5280853 61.9689686,37.3866854 L62.2041256,37.3866854 L62.2041256,39.4316292 L61.9689686,39.4316292 C61.9911226,39.2876292 61.9369261,39.142453 61.8258296,39.0482022 C61.7010995,38.9844889 61.5618688,38.9545264 61.4219731,38.9612921 L58.8659193,38.9612921 L58.8659193,40.7608427 L63.221435,40.7608427 C63.3360766,40.7672085 63.4495234,40.7347935 63.5434978,40.6688202 C63.6227495,40.6125963 63.6687624,40.5205658 63.6661883,40.423427 L63.9013453,40.423427 L63.9013453,42.2076404 L63.6661883,42.2076404 C63.68707,42.1138342 63.6342973,42.0192784 63.5434978,41.987809 C63.4389627,41.9687515 63.332785,41.9601883 63.2265471,41.9622472 L57.143139,41.9622472 L57.143139,41.7270787 C57.2026156,41.7283544 57.2606048,41.7084196 57.3067265,41.6708427 C57.3560239,41.626979 57.3824153,41.5628824 57.378296,41.4970225 L57.378296,35.5769101 C57.3824153,35.5110501 57.3560239,35.4469536 57.3067265,35.4030899 C57.2606048,35.3655129 57.2026156,35.3455782 57.143139,35.3468539 L57.143139,35.106573 L63.0885202,35.106573 C63.2222331,35.1179253 63.3561783,35.0875629 63.4719283,35.0196629 C63.5455736,34.9666495 63.5877928,34.8802877 63.5843946,34.7896067 L63.8195516,34.7896067 L63.8195516,36.5124719 L63.5843946,36.5124719 L63.5843946,36.5124719 Z" id="Shape"></path>
                    <path d="M65.6547982,41.7270787 C65.7205776,41.7369587 65.7872214,41.7157916 65.835246,41.6697658 C65.8832706,41.6237399 65.9072521,41.5580534 65.9001794,41.4919101 L65.9001794,35.5769101 C65.9072521,35.5107668 65.8832706,35.4450803 65.835246,35.3990545 C65.7872214,35.3530286 65.7205776,35.3318615 65.6547982,35.3417416 L65.6547982,35.106573 L67.8836771,35.106573 L67.8836771,35.3417416 C67.8521767,35.3426627 67.8226719,35.3573788 67.8029853,35.3819883 C67.7832987,35.4065977 67.7754189,35.4386147 67.781435,35.4695506 C67.8303764,35.6137464 67.9211374,35.7401061 68.0421525,35.8325281 L71.7842152,39.7179213 L71.7842152,35.5769101 C71.7842152,35.418427 71.6717489,35.3417416 71.4468161,35.3417416 L71.4468161,35.106573 L73.4149776,35.106573 L73.4149776,35.3417416 C73.3491982,35.3318615 73.2825544,35.3530286 73.2345298,35.3990545 C73.1865052,35.4450803 73.1625237,35.5107668 73.1695964,35.5769101 L73.1695964,41.4970225 C73.1625237,41.5631658 73.1865052,41.6288523 73.2345298,41.6748781 C73.2825544,41.720904 73.3491982,41.742071 73.4149776,41.732191 L73.4149776,41.9673596 L71.3036771,41.9673596 L71.3036771,41.7270787 C71.4161435,41.7270787 71.4723767,41.6878839 71.4723767,41.6094944 C71.4358734,41.4894563 71.3625497,41.3839365 71.2627803,41.3078652 L67.2855605,37.1617416 L67.2855605,41.4919101 C67.2846686,41.5669578 67.3188932,41.6381116 67.3780795,41.6842591 C67.4372657,41.7304066 67.5146144,41.7462464 67.5871749,41.7270787 L67.5871749,41.9622472 L65.6599103,41.9622472 L65.6599103,41.7270787 L65.6547982,41.7270787 Z" id="Shape"></path>
                    <path d="M80.1680717,35.106573 C80.6212714,35.1033136 81.0719598,35.1741149 81.5023318,35.3161798 C82.328538,35.5806756 82.9891105,36.2074034 83.2966816,37.0185955 C83.6448418,38.0009025 83.6448418,39.0730301 83.2966816,40.0553371 C82.9891105,40.8665291 82.328538,41.493257 81.5023318,41.7577528 C81.0719814,41.8999071 80.6212782,41.9707107 80.1680717,41.9673596 L75.8381166,41.9673596 L75.8381166,41.7270787 C75.9106771,41.7462464 75.9880258,41.7304066 76.047212,41.6842591 C76.1063983,41.6381116 76.1406229,41.5669578 76.1397309,41.4919101 L76.1397309,35.5769101 C76.1406229,35.5018624 76.1063983,35.4307086 76.047212,35.3845611 C75.9880258,35.3384136 75.9106771,35.3225738 75.8381166,35.3417416 L75.8381166,35.106573 L80.1680717,35.106573 L80.1680717,35.106573 Z M79.656861,40.8426404 C80.0156966,40.8483516 80.3740512,40.8140576 80.7252915,40.7403933 C81.005246,40.6827252 81.2657384,40.5542328 81.4818834,40.367191 C81.6913868,40.1737269 81.8465003,39.928706 81.9317489,39.656573 C82.1319176,38.9218553 82.1319176,38.1469649 81.9317489,37.4122472 C81.8465003,37.1401143 81.6913868,36.8950934 81.4818834,36.7016292 C81.2656118,36.5147784 81.0051716,36.3863117 80.7252915,36.328427 C80.3740321,36.2548883 80.0156915,36.2205957 79.656861,36.2261798 L77.6120179,36.2261798 L77.6120179,40.8273034 L79.656861,40.8273034 L79.656861,40.8426404 Z" id="Shape"></path>
                    <path d="M84.313991,41.7270787 C84.4226673,41.7114979 84.5194508,41.6500745 84.5798206,41.5583708 C84.6500455,41.4536163 84.713234,41.3443119 84.7689686,41.2311798 L87.1818834,36.1597191 L87.3454709,35.8478652 C87.3875133,35.7725059 87.4119795,35.688618 87.4170404,35.6024719 C87.4240417,35.5285819 87.3883323,35.4571597 87.3250224,35.418427 C87.2640417,35.3841827 87.1986904,35.3583849 87.1307623,35.3417416 L87.1307623,35.106573 L89.3340807,35.106573 L89.3340807,35.3417416 C89.2706483,35.359839 89.2090374,35.3837999 89.1500448,35.4133146 C89.0839107,35.4519252 89.0475819,35.5266048 89.0580269,35.6024719 C89.0583619,35.6748092 89.0740437,35.7462518 89.1040359,35.8120787 C89.1347085,35.8836517 89.1807175,35.9705618 89.2420628,36.0881461 L91.9514798,41.4101124 C91.9860796,41.4964354 92.0468665,41.5697408 92.1252915,41.6197191 C92.2081946,41.6667724 92.2935142,41.7094343 92.3808969,41.7475281 L92.3808969,41.9826966 L90.0855605,41.9826966 L90.0855605,41.7270787 C90.1306578,41.723046 90.174303,41.7090788 90.2133632,41.6861798 C90.2610344,41.6669238 90.2916444,41.6199862 90.2900448,41.5685955 C90.2808953,41.4500283 90.2460042,41.334882 90.1878027,41.2311798 L89.6765919,40.2649438 L86.496861,40.2649438 L86.0265471,41.1902809 C85.9592895,41.3121712 85.9159125,41.4457787 85.8987444,41.5839326 C85.8987444,41.6793633 85.9805381,41.7270787 86.1441256,41.7270787 L86.1441256,41.9622472 L84.2935426,41.9622472 L84.2935426,41.7270787 L84.313991,41.7270787 Z M89.2267265,39.3038202 L88.1327354,36.8805618 L86.9058296,39.3038202 L89.2267265,39.3038202 L89.2267265,39.3038202 Z" id="Shape"></path>
                    <path d="M31.301435,51.4456742 L31.4394619,51.5121348 C31.4384071,51.5890993 31.4578131,51.6649629 31.4956951,51.7319663 C31.5920875,51.8699929 31.7223594,51.9809056 31.873991,52.0540449 C32.0812495,52.1676349 32.2985921,52.2617643 32.5232287,52.3352247 C32.7738285,52.4196331 33.0300697,52.4862591 33.2900448,52.5346067 C33.525705,52.5823781 33.7653089,52.6080512 34.0057399,52.6112921 C34.1625112,52.6112921 34.3652915,52.5993633 34.6140807,52.5755056 C34.8620221,52.5529893 35.106989,52.5050213 35.3451121,52.4323596 C35.5668591,52.3674852 35.7760087,52.2654981 35.9636771,52.1307303 C36.1312612,52.0152175 36.2292975,51.8229799 36.2243946,51.6194944 C36.2377582,51.4302797 36.1452646,51.2492195 35.9841256,51.1491573 C35.788628,51.0364495 35.5735248,50.9618536 35.3502242,50.9293258 C35.0543338,50.8792469 34.7554941,50.8485076 34.4556054,50.8373034 C34.1147982,50.8373034 33.773991,50.8168539 33.4331839,50.7759551 C33.0900636,50.7491015 32.7487201,50.7030178 32.4107623,50.6379213 C32.0965371,50.5817476 31.7940691,50.4728537 31.5161435,50.3158427 C31.2562093,50.1662063 31.0381911,49.9534522 30.8822422,49.6972472 C30.7100424,49.3848551 30.6269309,49.0311714 30.6419731,48.6747753 C30.6431646,48.3820614 30.711365,48.0935073 30.8413453,47.831236 C30.9853099,47.5425713 31.1955184,47.2920605 31.4547982,47.1001685 C31.7719708,46.8704929 32.1265441,46.6975218 32.5027803,46.5889326 C32.9873725,46.4471694 33.4907068,46.3799399 33.9955157,46.3895506 C34.4208011,46.38489 34.8454946,46.4225663 35.2633184,46.5020225 C35.6211659,46.5770037 35.9313004,46.6553933 36.193722,46.737191 C36.4561435,46.8189888 36.6776682,46.8973783 36.858296,46.9723596 C36.9997807,47.0379883 37.1524394,47.0761549 37.3081614,47.0848315 C37.407311,47.0944646 37.5063172,47.065128 37.5842152,47.0030337 L37.7478027,47.1155056 L36.7969507,48.8434831 L36.6589238,48.7872472 C36.6453505,48.6745708 36.606938,48.5663119 36.5464574,48.4702809 C36.4475857,48.3384112 36.3222065,48.228699 36.1783857,48.1482022 C35.9892862,48.0340184 35.7888385,47.9397862 35.5802691,47.8670225 C35.3370989,47.7810722 35.0875383,47.7144055 34.8339013,47.6676404 C34.5693561,47.6170227 34.300644,47.5913483 34.0313004,47.5909551 C33.820851,47.5906199 33.6106704,47.6059997 33.4025112,47.6369663 C33.202192,47.6645786 33.0052095,47.7125419 32.8146188,47.7801124 C32.654412,47.8359901 32.5067647,47.9228457 32.3800897,48.0357303 C32.2670631,48.1349851 32.2034828,48.2789827 32.206278,48.429382 C32.1887642,48.6305766 32.2804741,48.8257135 32.4465471,48.940618 C32.6395494,49.0645461 32.8548701,49.1496367 33.0804484,49.1911236 C33.3754221,49.2509376 33.6744678,49.2885338 33.9750673,49.3035955 L34.9974888,49.3700562 C35.3409143,49.3967088 35.6823694,49.4445149 36.0199103,49.5132022 C36.3340781,49.5750219 36.6361832,49.6872379 36.9145291,49.8455056 C37.1733246,49.9944083 37.3911324,50.2052003 37.5484305,50.4589888 C37.7239587,50.7700906 37.8072965,51.1247371 37.7886996,51.4814607 C37.8075254,51.9060726 37.6732835,52.3233316 37.4104036,52.6573034 C37.152593,52.9635515 36.8294263,53.208122 36.4646637,53.3730337 C36.0846517,53.532663 35.6833862,53.6359982 35.2735426,53.6797753 C34.8688318,53.7380837 34.4606273,53.7688287 34.0517489,53.7717978 C33.6052191,53.7779694 33.1589439,53.7471903 32.7174888,53.6797753 C32.4164933,53.6341755 32.120411,53.5605791 31.8330942,53.4599438 C31.6434818,53.3910673 31.4575009,53.3125761 31.2758744,53.2247753 C31.1658255,53.164149 31.0434921,53.1291949 30.9180269,53.1225281 C30.843676,53.1287825 30.7769763,53.1707101 30.7391031,53.235 L30.544843,53.1225281 L31.301435,51.4456742 Z" id="Shape"></path>
                    <path d="M38.7855605,53.0202809 C38.8751776,53.0077594 38.95517,52.9575292 39.0053812,52.8822472 C39.0625082,52.7972364 39.113749,52.7084146 39.1587444,52.6164045 L41.1473543,48.4396067 L41.2802691,48.1839888 C41.3159548,48.1213561 41.336932,48.0514285 41.3416143,47.9794944 C41.3462564,47.9195271 41.3165541,47.8621 41.2649327,47.831236 C41.215313,47.8021033 41.1620137,47.7797508 41.1064574,47.7647753 L41.1064574,47.5449438 L42.941704,47.5449438 L42.941704,47.7392135 C42.8905304,47.7551287 42.8409092,47.7756626 42.7934529,47.8005618 C42.7400558,47.8322485 42.7100811,47.8922008 42.7167713,47.9539326 C42.716159,48.0137626 42.7283607,48.0730305 42.7525561,48.1277528 C42.7764126,48.1856929 42.8139013,48.2606742 42.8650224,48.3526966 L45.0990135,52.723764 C45.1273986,52.7952347 45.1774545,52.8560198 45.2421525,52.8975843 L45.4517489,53.0049438 L45.4517489,53.1992135 L43.5602691,53.1992135 L43.5602691,53.0049438 C43.5978769,53.0027554 43.6345361,52.9922808 43.6676233,52.9742697 C43.7080573,52.9591658 43.7346512,52.9202958 43.7340807,52.8771348 C43.726318,52.7781235 43.6966327,52.6820781 43.6471749,52.5959551 L43.2382063,51.8035393 L40.6003587,51.8035393 L40.2118386,52.5652809 C40.1559412,52.6648552 40.119508,52.7741601 40.1044843,52.8873596 C40.1044843,52.9657491 40.1726457,53.0049438 40.3089686,53.0049438 L40.3089686,53.1992135 L38.7753363,53.1992135 L38.7753363,53.0049438 L38.7855605,53.0202809 Z M42.8343498,51.0213483 L41.9192825,49.0224157 L40.896861,51.0213483 L42.8087892,51.0213483 L42.8343498,51.0213483 Z" id="Shape"></path>
                    <path d="M45.886278,53.0202809 C45.9411897,53.0306549 45.99774,53.0139925 46.0382551,52.9755012 C46.0787702,52.93701 46.098308,52.8813851 46.0907623,52.8260112 L46.0907623,47.9539326 C46.098308,47.8985587 46.0787702,47.8429338 46.0382551,47.8044426 C45.99774,47.7659513 45.9411897,47.7492889 45.886278,47.7596629 L45.886278,47.5449438 L47.7215247,47.5449438 L47.7215247,47.7392135 C47.6944515,47.7384504 47.6685704,47.7503536 47.6515292,47.7714054 C47.6344881,47.7924573 47.6282354,47.8202508 47.6346188,47.846573 C47.6742974,47.9663863 47.7491105,48.0714862 47.8493274,48.1482022 L50.9165919,51.3485393 L50.9165919,47.9334831 C50.9165919,47.80397 50.82287,47.7392135 50.635426,47.7392135 L50.635426,47.5449438 L52.2559641,47.5449438 L52.2559641,47.7392135 C52.2010524,47.7288395 52.1445021,47.7455019 52.103987,47.7839931 C52.0634719,47.8224844 52.0439341,47.8781093 52.0514798,47.9334831 L52.0514798,52.8055618 C52.0439341,52.8609357 52.0634719,52.9165606 52.103987,52.9550518 C52.1445021,52.993543 52.2010524,53.0102054 52.2559641,52.9998315 L52.2559641,53.1941011 L50.5178475,53.1941011 L50.5178475,52.9998315 C50.6098655,52.9998315 50.6558744,52.9691573 50.6558744,52.9026966 C50.6238477,52.8053226 50.5632901,52.7198253 50.4820628,52.6573034 L47.2103139,49.2422472 L47.2103139,52.8208989 C47.2102315,52.8819191 47.2380947,52.9396173 47.285935,52.9774928 C47.3337754,53.0153683 47.3963247,53.0292502 47.4556951,53.0151685 L47.4556951,53.2094382 L45.8658296,53.2094382 L45.8658296,53.0151685 L45.886278,53.0202809 Z" id="Shape"></path>
                    <path d="M56.8466368,52.8260112 C56.8453006,52.885473 56.8712751,52.9422706 56.9171272,52.9801502 C56.9629793,53.0180299 57.023656,53.0328173 57.0817937,53.0202809 L57.0817937,53.2145506 L55.430583,53.2145506 L55.430583,53.0202809 C55.4789345,53.0211438 55.5260271,53.0048418 55.5634978,52.9742697 C55.6053728,52.9388973 55.6281092,52.8858432 55.624843,52.8311236 L55.624843,48.5674157 L53.8560538,48.5674157 C53.7890212,48.5683326 53.7235521,48.5877973 53.6669058,48.6236517 C53.6002496,48.6691125 53.5647044,48.7481057 53.5748879,48.8281461 L53.3806278,48.8281461 L53.3806278,47.3251124 L53.5748879,47.3251124 C53.5647044,47.4051527 53.6002496,47.4841459 53.6669058,47.5296067 C53.7235521,47.5654611 53.7890212,47.5849258 53.8560538,47.5858427 L58.6205381,47.5858427 C58.6875707,47.5849258 58.7530398,47.5654611 58.8096861,47.5296067 C58.8763423,47.4841459 58.9118875,47.4051527 58.901704,47.3251124 L59.0959641,47.3251124 L59.0959641,48.8281461 L58.901704,48.8281461 C58.9118875,48.7481057 58.8763423,48.6691125 58.8096861,48.6236517 C58.7530398,48.5877973 58.6875707,48.5683326 58.6205381,48.5674157 L56.8466368,48.5674157 L56.8466368,52.8413483 L56.8466368,52.8260112 Z" id="Shape"></path>
                    <path d="M59.4435874,53.0202809 C59.5334373,53.0084014 59.6136739,52.9580178 59.6634081,52.8822472 C59.7206316,52.7972967 59.7718764,52.708468 59.8167713,52.6164045 L61.8002691,48.4396067 L61.9331839,48.1839888 C61.9688696,48.1213561 61.9898468,48.0514285 61.9945291,47.9794944 C61.9991712,47.9195271 61.9694689,47.8621 61.9178475,47.831236 C61.8666564,47.8016188 61.8116018,47.7792517 61.7542601,47.7647753 L61.7542601,47.5449438 L63.5690583,47.5449438 L63.5690583,47.7392135 C63.5178653,47.755075 63.4682393,47.7756109 63.4208072,47.8005618 C63.36741,47.8322485 63.3374354,47.8922008 63.3441256,47.9539326 C63.3436695,48.0137474 63.3558644,48.0729828 63.3799103,48.1277528 C63.3799103,48.1839888 63.4412556,48.2606742 63.4923767,48.3526966 L65.7263677,52.723764 C65.754449,52.7954137 65.8045748,52.8562837 65.8695067,52.8975843 L66.0791031,53.0049438 L66.0791031,53.1992135 L64.1876233,53.1992135 L64.1876233,53.0049438 C64.2252311,53.0027554 64.2618903,52.9922808 64.2949776,52.9742697 C64.3354115,52.9591658 64.3620055,52.9202958 64.361435,52.8771348 C64.3535049,52.7781556 64.3238307,52.6821461 64.2745291,52.5959551 L63.8655605,51.8035393 L61.2481614,51.8035393 L60.8596413,52.5652809 C60.8036288,52.6648042 60.767188,52.7741318 60.752287,52.8873596 C60.752287,52.9657491 60.8204484,53.0049438 60.9567713,53.0049438 L60.9567713,53.1992135 L59.423139,53.1992135 L59.423139,53.0049438 L59.4435874,53.0202809 Z M63.4923767,51.0213483 L62.5926457,49.0224157 L61.5702242,51.0213483 L63.4821525,51.0213483 L63.4923767,51.0213483 Z" id="Shape"></path>
                    <path d="M69.8416143,52.9640449 C69.9114093,52.9659205 69.9798146,52.9443178 70.0358744,52.9026966 C70.0912897,52.8581811 70.1217613,52.7896167 70.1176682,52.7186517 L70.1176682,46.4202247 C70.1252022,46.351522 70.0936121,46.2843896 70.0358744,46.2464045 C69.9765008,46.2137099 69.9093444,46.1978036 69.8416143,46.2003933 L69.8416143,45.9498876 L72.3976682,45.9498876 L72.3976682,46.2003933 C72.3472536,46.2016311 72.2979879,46.2157077 72.2545291,46.2412921 C72.206999,46.2634771 72.1769602,46.3115414 72.1778475,46.3639888 C72.1833437,46.4270155 72.2025351,46.488082 72.2340807,46.5429213 L72.3567713,46.7780899 L74.3300448,50.3567416 L76.3186547,46.808764 C76.3851121,46.6911798 76.4311211,46.5940449 76.4617937,46.5275843 C76.4900368,46.4702038 76.5057218,46.4074607 76.5078027,46.3435393 C76.5104118,46.297398 76.4913559,46.252679 76.4562686,46.2226027 C76.4211812,46.1925263 76.3740761,46.1805331 76.3288789,46.1901685 L76.3288789,45.9396629 L78.8849327,45.9396629 L78.8849327,46.1901685 C78.8172027,46.1875789 78.7500463,46.2034852 78.6906726,46.2361798 C78.632935,46.2741649 78.6013448,46.3412973 78.6088789,46.41 L78.6088789,52.7033146 C78.6047858,52.7742796 78.6352574,52.842844 78.6906726,52.8873596 C78.7467325,52.9289807 78.8151378,52.9505834 78.8849327,52.9487079 L78.8849327,53.1992135 L76.7173991,53.1992135 L76.7173991,52.9640449 C76.9661883,52.9640449 77.090583,52.8805431 77.090583,52.7135393 L77.090583,48.1124157 L77.0650224,48.1124157 L74.289148,53.1941011 L74.2482511,53.1941011 L71.5286099,48.0817416 L71.5030493,48.0817416 L71.5030493,52.6828652 C71.5030493,52.8464607 71.6325561,52.9299625 71.8915695,52.9333708 L71.8915695,53.1838764 L69.8467265,53.1838764 L69.8467265,52.9640449 L69.8416143,52.9640449 Z" id="Shape"></path>
                    <path d="M83.4142601,47.4989326 C83.8211473,47.5015605 84.2256119,47.5618029 84.6156054,47.6778652 C85.0127291,47.7856664 85.3892901,47.9584094 85.7300448,48.1891011 C86.0669172,48.4246424 86.349328,48.7297309 86.5582063,49.083764 C86.9844426,49.8825134 86.9844426,50.8411945 86.5582063,51.6399438 C86.349328,51.993977 86.0669172,52.2990654 85.7300448,52.5346067 C85.3920054,52.7700862 85.0145865,52.9432226 84.6156054,53.0458427 C83.8290764,53.2603966 82.9994437,53.2603966 82.2129148,53.0458427 C81.8139337,52.9432226 81.4365148,52.7700862 81.0984753,52.5346067 C80.7616029,52.2990654 80.4791921,51.993977 80.2703139,51.6399438 C79.8440776,50.8411945 79.8440776,49.8825134 80.2703139,49.083764 C80.4791921,48.7297309 80.7616029,48.4246424 81.0984753,48.1891011 C81.4391838,47.9583271 81.815759,47.7855777 82.2129148,47.6778652 C82.6028784,47.5616681 83.0073623,47.5014228 83.4142601,47.4989326 L83.4142601,47.4989326 Z M83.4142601,48.485618 C83.1366582,48.4858237 82.8607558,48.5289356 82.5963229,48.613427 C82.3322559,48.6945192 82.0834901,48.8189082 81.8601794,48.9815169 C81.6504584,49.1436215 81.4764287,49.3472464 81.3489686,49.5796629 C81.0771864,50.0820563 81.0771864,50.6876628 81.3489686,51.1900562 C81.4764287,51.4224727 81.6504584,51.6260976 81.8601794,51.7882022 C82.0834901,51.9508109 82.3322559,52.0751999 82.5963229,52.1562921 C83.1263761,52.3278467 83.697032,52.3278467 84.2270852,52.1562921 C84.4911521,52.0751999 84.739918,51.9508109 84.9632287,51.7882022 C85.1728483,51.6259911 85.3468584,51.4223892 85.4744395,51.1900562 C85.7462217,50.6876628 85.7462217,50.0820563 85.4744395,49.5796629 C85.3468584,49.3473299 85.1728483,49.143728 84.9632287,48.9815169 C84.739918,48.8189082 84.4911521,48.6945192 84.2270852,48.613427 C83.9642856,48.5294544 83.6901474,48.4863488 83.4142601,48.485618 L83.4142601,48.485618 Z" id="Shape"></path>
                    <path d="M88.1173991,53.0202809 C88.1723108,53.0306549 88.2288611,53.0139925 88.2693762,52.9755012 C88.3098913,52.93701 88.3294291,52.8813851 88.3218834,52.8260112 L88.3218834,47.9539326 C88.3294291,47.8985587 88.3098913,47.8429338 88.2693762,47.8044426 C88.2288611,47.7659513 88.1723108,47.7492889 88.1173991,47.7596629 L88.1173991,47.5449438 L89.9730942,47.5449438 L89.9730942,47.7392135 C89.946021,47.7384504 89.9201399,47.7503536 89.9030988,47.7714054 C89.8860576,47.7924573 89.8798049,47.8202508 89.8861883,47.846573 C89.9258669,47.9663863 90.0006801,48.0714862 90.1008969,48.1482022 L93.1681614,51.3485393 L93.1681614,47.9334831 C93.1681614,47.8056742 93.0761435,47.7392135 92.8869955,47.7392135 L92.8869955,47.5449438 L94.5075336,47.5449438 L94.5075336,47.7392135 C94.4526219,47.7288395 94.3960716,47.7455019 94.3555565,47.7839931 C94.3150414,47.8224844 94.2955036,47.8781093 94.3030493,47.9334831 L94.3030493,52.8055618 C94.2955036,52.8609357 94.3150414,52.9165606 94.3555565,52.9550518 C94.3960716,52.993543 94.4526219,53.0102054 94.5075336,52.9998315 L94.5075336,53.1941011 L92.769417,53.1941011 L92.769417,52.9998315 C92.861435,52.9998315 92.9074439,52.9691573 92.9074439,52.9026966 C92.8754172,52.8053226 92.8148596,52.7198253 92.7336323,52.6573034 L89.4618834,49.2626966 L89.4618834,52.8413483 C89.461801,52.9023685 89.4896642,52.9600668 89.5375045,52.9979423 C89.5853449,53.0358177 89.6478943,53.0496996 89.7072646,53.035618 L89.7072646,53.2298876 L88.1173991,53.2298876 L88.1173991,53.035618 L88.1173991,53.0202809 Z" id="Shape"></path>
                    <path d="M96.4450224,53.0202809 C96.6290583,53.0202809 96.7261883,52.9538202 96.7261883,52.8260112 L96.7261883,47.9539326 C96.7261883,47.8261236 96.6341704,47.7596629 96.4450224,47.7596629 L96.4450224,47.5449438 L98.229148,47.5449438 L98.229148,47.7392135 C98.0451121,47.7392135 97.9479821,47.8056742 97.9479821,47.9334831 L97.9479821,52.8055618 C97.9479821,52.9333708 98.04,52.9998315 98.229148,52.9998315 L98.229148,53.1941011 L96.4450224,53.1941011 L96.4450224,52.9998315 L96.4450224,53.0202809 Z" id="Shape"></path>
                    <path d="M105.55991,52.4374719 L105.442332,52.4374719 C105.33363,52.4625208 105.229932,52.5057301 105.135605,52.5652809 C104.975426,52.6504869 104.770942,52.7476217 104.522152,52.8566854 C104.249147,52.9733177 103.967035,53.0673596 103.678655,53.1378652 C103.355851,53.2174216 103.024477,53.2569137 102.692018,53.2554494 C102.253321,53.2565501 101.816506,53.1980759 101.393543,53.0816292 C100.998286,52.9818581 100.625398,52.8084132 100.294439,52.5703933 C99.9778802,52.3331787 99.7192025,52.0272948 99.5378475,51.6757303 C98.9319297,50.504075 99.2503645,49.0667442 100.294439,48.2606742 C100.623965,48.0121504 100.996594,47.826693 101.393543,47.7136517 C101.815359,47.5906117 102.252625,47.528634 102.692018,47.5296067 C103.024606,47.5271267 103.356679,47.5562273 103.683767,47.6165169 C103.980269,47.6744569 104.239283,47.7358052 104.460807,47.8005618 C104.63495,47.8509783 104.8057,47.9124514 104.972018,47.9846067 C105.046224,48.0238292 105.125297,48.0530532 105.207175,48.0715169 C105.24467,48.0717155 105.279553,48.0523356 105.299193,48.0203933 L105.360538,47.9334831 L105.524126,48.0612921 L104.68574,49.3598315 L104.578386,49.2831461 C104.580235,49.2610311 104.580235,49.2388004 104.578386,49.2166854 L104.578386,49.14 C104.541194,49.0347881 104.464056,48.9484625 104.363677,48.8997191 C104.21446,48.8078834 104.054868,48.7340897 103.888251,48.6798876 C103.690843,48.6126331 103.489361,48.5579911 103.285022,48.5162921 C103.093453,48.47483 102.898228,48.4525664 102.702242,48.4498315 C102.409447,48.4483958 102.118136,48.4914913 101.838296,48.5776404 C101.576054,48.6565074 101.331367,48.784931 101.117489,48.9559551 C100.904819,49.1190972 100.730349,49.3267266 100.606278,49.5643258 C100.363904,50.084498 100.363904,50.6852211 100.606278,51.2053933 C100.730349,51.4429925 100.904819,51.6506219 101.117489,51.813764 C101.331367,51.9847881 101.576054,52.1132117 101.838296,52.1920787 C102.118136,52.2782278 102.409447,52.3213233 102.702242,52.3198876 C102.944732,52.3182545 103.18636,52.2908343 103.423049,52.2380899 C103.656683,52.1891076 103.885819,52.1207053 104.108072,52.0335955 C104.289813,51.962149 104.461623,51.8676489 104.619283,51.7524157 C104.731067,51.691114 104.808383,51.5817348 104.828879,51.4558989 C104.830423,51.40985 104.815972,51.3646875 104.787982,51.3280899 L104.936233,51.2411798 L105.646816,52.381236 L105.55991,52.4374719 Z" id="Shape"></path>
                    <path d="M105.692825,53.0202809 C105.782675,53.0084014 105.862912,52.9580178 105.912646,52.8822472 C105.969869,52.7972967 106.021114,52.708468 106.066009,52.6164045 L108.049507,48.4396067 L108.182422,48.1839888 C108.218107,48.1213561 108.239084,48.0514285 108.243767,47.9794944 C108.248409,47.9195271 108.218707,47.8621 108.167085,47.831236 C108.115894,47.8016188 108.060839,47.7792517 108.003498,47.7647753 L108.003498,47.5449438 L109.818296,47.5449438 L109.818296,47.7392135 C109.767103,47.755075 109.717477,47.7756109 109.670045,47.8005618 C109.616648,47.8322485 109.586673,47.8922008 109.593363,47.9539326 C109.592907,48.0137474 109.605102,48.0729828 109.629148,48.1277528 C109.629148,48.1839888 109.690493,48.2606742 109.741614,48.3526966 L111.975605,52.723764 C112.003687,52.7954137 112.053812,52.8562837 112.118744,52.8975843 L112.328341,53.0049438 L112.328341,53.1992135 L110.436861,53.1992135 L110.436861,53.0049438 C110.474469,53.0027554 110.511128,52.9922808 110.544215,52.9742697 C110.584649,52.9591658 110.611243,52.9202958 110.610673,52.8771348 C110.602743,52.7781556 110.573068,52.6821461 110.523767,52.5959551 L110.114798,51.8035393 L107.507623,51.8035393 L107.119103,52.5652809 C107.063091,52.6648042 107.02665,52.7741318 107.011749,52.8873596 C107.011749,52.9657491 107.07991,53.0049438 107.216233,53.0049438 L107.216233,53.1992135 L105.682601,53.1992135 L105.682601,53.0049438 L105.692825,53.0202809 Z M109.741614,51.0213483 L108.841883,49.0224157 L107.819462,51.0213483 L109.73139,51.0213483 L109.741614,51.0213483 Z" id="Shape"></path>
                    <polygon id="Shape" points="82.6474439 46.7780899 83.8590135 45.1830337 85.2034978 45.5 83.5573991 46.7780899"></polygon>
                </g>
            </g>
        </g>
    </g>
</svg>